<svg width="72" height="97" viewBox="0 0 72 97" fill="none" xmlns="http://www.w3.org/2000/svg">
<path fill-rule="evenodd" clip-rule="evenodd" d="M0 96.4688H72V0.46875H0V96.4688Z" fill="#F03E3E"/>
<path fill-rule="evenodd" clip-rule="evenodd" d="M26.0536 74.7157C25.0456 76.3056 23.9309 78.055 21.7023 79.6452C19.5803 81.1298 16.8742 82.1368 13.7429 82.1368C8.43712 82.1368 0 78.9565 0 67.6654C0 59.6084 4.66923 52.8232 13.9024 52.8232C16.9802 52.8232 22.2335 53.6716 25.735 59.4491L19.6863 62.8949C19.2085 61.8876 18.6783 60.9337 17.351 59.9795C16.5556 59.4491 15.547 59.0256 14.2738 59.0256C9.86972 59.0256 8.38396 64.0612 8.38396 67.4005C8.38396 71.0581 10.1883 75.6696 14.539 75.6696C14.9639 75.6696 16.9802 75.6696 18.6783 73.7618C19.3677 72.9663 19.6331 72.33 19.8982 71.5354L26.0536 74.7157Z" fill="white"/>
<path fill-rule="evenodd" clip-rule="evenodd" d="M34.4371 66.6051C34.4371 68.9374 34.5963 73.7617 39.637 73.7617C43.7756 73.7617 44.7308 70.5273 44.7308 66.6051C44.7308 65.2798 44.6248 62.5234 43.7228 61.1984C43.0855 60.1911 41.6005 59.0775 39.2655 59.1841C35.392 59.343 34.4371 62.6823 34.4371 66.6051ZM44.7836 77.5776C43.1915 78.6383 41.2283 79.9099 37.4611 79.9099C35.1797 79.9099 32.951 79.327 31.147 78.1076C27.4326 75.7222 26 71.429 26 66.6582C26 61.0921 28.5997 53.0879 37.7797 53.0879C42.0244 53.0879 43.9875 54.9429 45.2082 56.1089V53.5117H52.8493V80.1223C52.7433 83.1436 52.637 86.6953 48.6036 89.028C45.7916 90.724 41.6536 91.1482 39.1595 91.1482C33.6411 91.1482 30.033 89.2397 28.5466 87.703C26.3718 85.5294 26.4246 82.7201 26.4246 81.2355H34.861C34.967 82.4546 35.0737 84.2041 37.2492 85.2111C37.7797 85.4763 38.5758 85.7411 39.8492 85.7411C44.7836 85.7411 44.7836 82.826 44.7836 80.5458V77.5776Z" fill="white"/>
<path fill-rule="evenodd" clip-rule="evenodd" d="M58.5216 45.2393H66.6401V53.5127H71.7027V59.1843H66.5873V71.6411C66.5338 73.3374 66.5338 74.7686 68.709 74.7686L71.6273 74.6627V81.0237C69.8761 81.2892 68.8153 81.4479 67.3305 81.4479C64.5168 81.4479 61.4396 81.2892 59.6888 78.7439C58.5748 77.1009 58.5216 75.1397 58.5216 72.4894V59.1316H54.4883V53.5057H58.5216V45.2393Z" fill="white"/>
<path fill-rule="evenodd" clip-rule="evenodd" d="M29.4275 31.359V31.3631C29.4568 31.3395 29.4494 31.3442 29.4275 31.359Z" fill="#FAB005"/>
<path fill-rule="evenodd" clip-rule="evenodd" d="M29.232 31.6068C29.2273 31.6481 29.2754 31.6021 29.232 31.6068V31.6068Z" fill="#FAB005"/>
<path fill-rule="evenodd" clip-rule="evenodd" d="M4.06158 50.2628C4.06191 50.2624 4.06393 50.2587 4.06393 50.2587C4.0535 50.2423 4.04846 50.2376 4.06158 50.2628Z" fill="#FAB005"/>
<path fill-rule="evenodd" clip-rule="evenodd" d="M53.4424 51.0723C53.4411 51.0716 53.4401 51.0713 53.4401 51.0713C53.433 51.0713 53.4317 51.0713 53.4424 51.0723Z" fill="#FAB005"/>
<path fill-rule="evenodd" clip-rule="evenodd" d="M53.5214 51.0718C53.5201 51.0718 53.5201 51.0724 53.519 51.0724C53.5295 51.0724 53.5275 51.0724 53.5214 51.0718Z" fill="#FAB005"/>
<path fill-rule="evenodd" clip-rule="evenodd" d="M17.3434 39.3082C17.3794 39.1976 17.3989 39.1069 17.4205 38.923L17.5359 38.8841C17.5372 38.8841 17.6667 38.9496 17.729 38.923C17.7448 38.9153 17.7196 38.8252 17.729 38.8071C17.736 38.7906 17.8726 38.7469 17.8834 38.7298C17.908 38.6874 17.8999 38.5392 17.8834 38.5758L18.2548 37.9211C18.2596 37.907 18.4416 37.6663 18.4463 37.6535L18.5405 37.4569C18.7336 37.2005 18.5509 37.1258 18.6559 36.8012C18.6842 36.7124 18.8867 36.6244 18.9644 36.5702L19.0421 36.6472C19.0008 36.3776 18.9937 36.2761 19.1962 36.1461C19.1989 36.1588 19.2305 36.3363 19.2353 36.339C19.3133 36.3776 19.3544 36.2825 19.3897 36.3C19.4001 36.1407 19.5074 35.9622 19.5562 35.8893C19.5492 35.8987 19.5438 35.9057 19.532 35.9212C19.8341 35.5293 19.7806 35.2695 19.8139 35.0271C20.0118 35.0271 19.9677 35.1132 20.0454 34.8339C20.4451 34.9525 20.4236 34.7959 20.2776 34.487C20.4317 34.4134 20.3163 34.2941 20.3163 34.2941C20.434 34.2739 20.5319 34.4016 20.6638 34.3717C20.7213 34.3573 20.6638 34.2561 20.6638 34.2561C20.6419 34.3425 20.5861 34.1788 20.5861 34.1788C20.5861 34.1788 20.7395 33.9472 20.7409 33.9472C20.7698 33.9643 20.8014 34.0695 20.8179 34.1011C20.825 34.0964 20.9723 33.9859 20.9723 33.9859C20.9744 33.9764 21.0881 33.8319 21.0881 33.8319C21.1476 33.5734 21.1641 33.3072 21.2042 33.1372C21.2042 33.1372 21.2607 33.2225 21.2815 33.2141C21.3115 33.2935 21.3562 33.3795 21.3973 33.4847C21.4239 33.475 21.5117 33.4444 21.5127 33.4461C21.5658 33.2202 21.587 32.9852 21.6287 32.675C21.7105 32.6767 21.6769 32.5735 21.7835 32.5977C21.7835 32.5977 21.9147 32.6989 21.9379 32.713C21.9544 32.6602 21.9332 32.6155 21.9763 32.5201C22.012 32.5201 22.1462 32.5382 22.1694 32.5201C22.1899 32.5012 22.1694 32.3614 22.1694 32.3278C22.2865 32.2831 22.2323 32.3601 22.2852 32.2502L22.015 32.0959C22.1499 32.0213 22.3407 31.9947 22.4783 31.9029C22.6243 31.8031 22.6479 31.5013 22.7868 31.4021C22.8776 31.3342 22.9883 31.3789 23.096 31.3248C23.239 31.2495 23.312 31.0059 23.4052 30.939C23.5458 30.8341 23.7242 30.8748 23.8291 30.746C23.9304 30.618 23.8207 30.5141 23.9459 30.3988C24.0445 30.3037 24.1612 30.3555 24.2931 30.2829C24.4956 30.1689 24.5945 29.8049 24.8718 29.6278C25.0757 29.496 24.9276 29.6026 24.9879 29.3579C24.9879 29.3579 25.0797 29.2802 25.0262 29.2802C25.1833 29.1935 25.3011 29.2537 25.4125 29.2033C25.4882 29.1673 25.5003 28.9909 25.5665 28.933C25.5968 28.9055 25.684 28.9502 25.7216 28.933C25.7476 28.9203 25.7334 28.7996 25.76 28.7791C25.8105 28.7344 25.9033 28.7825 25.9528 28.7401C26.0123 28.687 25.9948 28.5458 26.0689 28.5089C26.1678 28.4571 26.2933 28.5139 26.3774 28.4702C26.4504 28.4319 26.6802 28.1657 26.8027 28.0847C26.7936 28.0679 26.7461 28.0195 26.7636 28.0074C26.8037 27.9771 26.912 28.0279 26.9567 28.0074C27.0062 27.9839 27.057 27.7761 27.1112 27.7378C27.2384 27.6437 27.3995 27.675 27.5361 27.5832C27.594 27.5425 27.5644 27.4155 27.6515 27.3903C27.7047 27.3738 27.7975 27.4155 27.8446 27.3903C27.9318 27.3409 27.9308 27.1785 27.9991 27.12C28.2591 26.9002 28.4576 27.1177 28.7716 26.7345C28.9946 26.7984 28.9162 26.8085 29.1578 26.7345C29.4953 27.2047 29.1379 27.7109 28.9647 28.162C28.8859 28.3633 28.8728 28.5253 28.7716 28.7011C28.6948 28.8319 28.5253 28.9502 28.4624 29.0873C28.3634 29.3007 28.384 29.4409 28.2692 29.6278C28.2127 29.7179 28.0566 29.8039 27.9991 29.8977C27.9402 29.9901 27.952 30.1202 27.8837 30.2059C27.8157 30.2866 27.6263 30.3047 27.5745 30.3988C27.5351 30.4671 27.5829 30.5931 27.5361 30.6691C27.4769 30.7618 27.3914 30.6758 27.3043 30.746C27.2468 30.7907 27.3053 30.8667 27.2653 30.939C27.2441 30.9749 27.1354 30.9823 27.1112 31.0159C27.0287 31.1265 27.0412 31.2536 26.9567 31.3631C26.8881 31.4489 26.6405 31.5356 26.6095 31.633C26.5836 31.7053 26.6247 31.792 26.6095 31.8646C26.5577 31.8619 26.4104 31.8236 26.3387 31.8646C26.2933 31.8895 26.2956 32.0475 26.262 32.0959C26.2327 32.1342 25.9265 32.3419 25.9148 32.3661C25.8239 32.5318 25.9013 32.6589 25.76 32.79C25.6261 32.913 25.5861 32.7923 25.4508 32.8673C25.3048 32.9473 25.2469 33.3002 25.1033 33.4071C24.9855 33.4941 24.7971 33.4649 24.6787 33.561C24.5616 33.6541 24.571 33.9368 24.4472 34.0248C24.3833 34.0675 24.2719 34.0259 24.2154 34.0632C24.0636 34.1606 24.027 34.4729 23.8682 34.5646C23.7184 34.649 23.5569 34.5583 23.4052 34.6416C23.3591 34.6658 23.3675 34.814 23.3275 34.8339C23.2945 34.85 23.1559 34.8053 23.1344 34.8339C23.1031 34.8732 23.1502 34.9801 23.1344 35.0271C23.132 35.0318 22.8729 35.2923 22.8645 35.297C22.6973 35.3854 22.5974 35.3085 22.4006 35.413C22.3417 35.4443 22.2522 35.5817 22.2074 35.6059C22.0298 35.699 21.8895 35.6419 21.7835 35.7989C21.6839 35.941 21.6954 36.093 21.5904 36.223C21.5308 36.2929 21.368 36.3376 21.3196 36.416C21.297 36.4506 21.3091 36.5484 21.2815 36.5702C20.977 36.7931 20.9905 36.4217 20.8566 36.9171C20.8263 36.9141 20.6773 36.8912 20.6615 36.8818C20.616 36.946 20.4905 37.0892 20.4317 37.148C20.2015 37.3776 19.9832 37.503 19.8139 37.8041C19.9714 37.7258 20.0643 37.7053 20.2002 37.6112L20.0841 37.7658L20.0454 37.8041C20.0289 37.8129 19.996 37.9742 19.969 37.997C19.8277 38.1059 19.5979 38.0757 19.4667 38.19C19.4553 38.198 19.4667 38.2875 19.4667 38.3059C19.2541 38.4142 19.0869 38.6444 18.8877 38.7298C18.6569 38.8262 18.9913 38.5174 19.1192 38.4602L19.1575 38.3059C19.0317 38.3853 18.5923 38.4888 18.5405 38.5758C18.452 38.7204 18.5651 38.7634 18.5015 38.8841C18.4793 38.9257 18.4039 38.9476 18.3672 38.9563C18.3649 38.96 18.3591 38.9617 18.3474 38.961C18.3467 38.961 18.3544 38.9593 18.3672 38.9563C18.3803 38.9388 18.2515 38.8777 18.1542 38.923C18.1105 38.9422 18.1061 39.0565 18.0765 39.077C17.8656 39.2171 17.7313 39.2578 17.4205 39.3855C17.4205 39.4124 17.4359 39.5654 17.4205 39.5788C17.3952 39.5593 17.3347 39.4894 17.3047 39.5018C17.3225 39.439 17.3182 39.3812 17.3434 39.3082ZM71.295 47.0318C71.2058 47.0355 71.122 47.0429 71.0477 47.0607C71.0255 47.066 70.9938 47.1679 70.9703 47.1766C70.8475 47.2203 70.3731 47.2869 70.3142 47.2926C70.0175 47.3175 69.7537 47.1766 69.3876 47.1766C69.4135 47.348 69.392 47.426 69.5027 47.6008C69.4438 47.5843 69.3261 47.6237 69.2709 47.6008C69.1992 47.5695 69.1837 47.3111 68.9233 47.4855C68.8931 47.5043 68.8833 47.629 68.847 47.6398C68.7632 47.6616 68.8409 47.6267 68.8083 47.6008L67.9591 47.4855L67.8813 47.4079C67.8046 47.4139 67.7952 47.4351 67.7659 47.4469C67.6189 47.4996 67.734 47.5181 67.6502 47.6008H67.5728C67.5432 47.5843 67.5728 47.4469 67.5728 47.4469C67.4362 47.4139 67.3477 47.578 67.264 47.6008C67.1287 47.6348 66.9888 47.5433 66.7613 47.5628C66.4585 47.5867 66.0453 47.709 65.7971 47.8327C65.7335 47.782 65.6766 47.7373 65.6036 47.6784C65.5874 47.6926 65.3327 48.0257 65.3327 48.0257C65.2648 48.0549 65.1682 47.9685 65.2564 47.9867C65.2527 47.9601 65.3176 47.7551 65.2564 47.7551C65.1753 47.7537 65.1753 47.8579 65.14 47.909C64.9973 47.8327 64.8429 47.7625 64.677 47.909C64.6558 47.9282 64.6676 48.0156 64.638 48.0257C64.4698 48.0761 64.6592 47.8156 64.4449 47.871C64.3365 47.8993 64.2258 48.0579 64.1363 48.1026C63.9846 48.1762 63.8467 48.1749 63.6737 48.2186C63.6761 48.2095 63.7444 48.1144 63.7114 48.1026C63.6808 48.0902 63.6253 48.1208 63.596 48.1026C63.524 48.1927 63.5122 48.2616 63.4416 48.3725C63.3591 48.3544 63.2532 48.3725 63.1707 48.3725C63.1754 48.2962 63.1707 48.2156 63.1707 48.1409C63.3003 48.1456 63.0873 48.0774 63.0553 48.064C62.9658 48.2498 62.986 48.2169 63.0163 48.4108C62.9907 48.4108 62.9201 48.4219 62.9012 48.4108C62.9012 48.4108 62.6809 48.4414 62.5537 48.4495C62.6903 48.3715 62.5974 48.3937 62.6304 48.2956L62.7468 48.2186C62.7387 48.2169 62.6149 48.148 62.5927 48.1409C62.5406 48.2942 62.4713 48.5534 62.1674 48.5268C61.8189 48.4955 62.1886 48.2243 61.7048 48.4495V48.6807C61.6964 48.6834 61.1642 48.6038 61.1642 48.6038C61.1231 48.5692 61.1419 48.4915 61.0864 48.4495C61.0134 48.4979 60.9051 48.6945 60.8166 48.7197C60.5306 48.7977 60.3587 48.6508 60.1208 48.7197C60.1077 48.7221 60.1538 48.7843 60.1595 48.7967C60.0515 48.832 59.9597 48.9069 59.8123 48.8737C59.7558 48.8609 59.8123 48.7197 59.8123 48.7197C59.7534 48.6955 59.4355 48.6784 59.4261 48.6807V48.7197C59.4261 48.7197 59.2047 48.8209 59.0785 48.835L59.0398 49.0286C58.9254 49.0861 58.7229 48.9137 58.5769 48.9127C58.5217 48.9113 58.4615 49.0286 58.4615 49.0286C57.9517 49.1728 57.5769 49.1207 57.0709 49.1819C56.9565 49.1957 56.6174 49.3584 56.4926 49.3748C56.2557 49.4044 55.964 49.4246 55.8355 49.3748C55.7473 49.3402 55.7874 49.2054 55.5657 49.2209C55.3984 49.2313 55.2571 49.4219 55.1407 49.4528C54.9641 49.4972 54.6707 49.5204 54.5614 49.5298C54.3245 49.5493 54.201 49.4669 54.0597 49.3748C54.0432 49.391 54.0207 49.5677 54.0207 49.5677C53.9194 49.5872 53.8017 49.4279 53.6344 49.4528C53.6321 49.4528 53.5355 49.5634 53.519 49.5677C53.3363 49.6161 53.0211 49.6444 52.8633 49.6454C52.5097 49.6454 52.179 49.5678 51.821 49.6067C51.4078 49.6491 51.2123 49.8138 50.8163 49.838C50.7141 49.8434 50.3467 49.7445 50.1606 49.761C50.025 49.7714 49.8921 49.9721 49.7744 49.9919C49.5012 50.0373 49.5577 49.8366 49.3114 49.8766C49.268 49.8827 49.2831 49.9825 49.2727 50.0306C48.9699 50.003 48.3905 50.1855 48.2297 49.9156C48.2011 49.9318 48.1894 50.0491 48.2297 50.0699C47.9091 50.0699 47.681 50.1596 47.4192 50.1469C47.2365 50.1361 47.0279 50.1361 46.7631 50.0699C46.7002 50.0538 46.635 49.9197 46.608 49.9156C46.3574 49.8608 46.0583 50.0296 45.7975 50.0306H45.4113C45.4113 50.0306 45.3501 49.8548 45.2959 49.838C45.1697 49.7973 45.0156 49.9166 44.9097 49.9156C44.8461 49.9139 44.7842 49.8044 44.7552 49.7997C44.3498 49.722 44.4975 50.0165 44.2149 49.9919C44.2149 49.9919 43.7674 49.802 43.9827 49.838C43.979 49.8286 43.9074 49.7365 43.9444 49.722C43.7849 49.7456 43.719 49.7365 43.5585 49.761C43.5595 49.7691 43.5972 49.9536 43.5972 49.9536C43.504 49.9677 43.288 49.7997 43.288 49.7997C43.0578 49.756 43.2513 49.8874 43.0558 49.8766C42.8139 49.8608 42.6013 49.6356 42.4388 49.5298C42.3661 49.5778 42.3399 49.595 42.246 49.6454C42.1915 49.5042 42.108 49.3792 42.0525 49.2595C41.8126 49.316 41.6289 49.2162 41.3578 49.1819C41.3457 49.1338 41.3625 49.0377 41.3191 49.0286C41.1465 48.9886 41.1858 49.1348 41.0106 49.0666C40.9645 49.0485 40.8568 48.8475 40.8174 48.835C40.7478 48.8138 40.6596 48.8932 40.5466 48.8737C40.4298 48.8532 40.483 48.7244 40.4699 48.7197C40.4164 48.6979 40.3262 48.7463 40.2768 48.7197C40.2596 48.7103 40.2734 48.5796 40.2381 48.5655C40.2061 48.552 40.0584 48.6609 39.9295 48.4881C39.9013 48.4522 39.9094 48.429 39.8905 48.3725C39.8905 48.3725 39.8565 48.2798 39.8135 48.2186C39.8424 48.2714 39.8824 48.1221 39.8135 48.064C39.688 47.9568 39.6103 48.0304 39.4652 48.0257C39.4996 47.9974 39.4326 47.9268 39.4272 47.909C39.4632 47.8949 39.5033 47.909 39.543 47.909C39.4814 47.6341 39.3959 47.6586 39.3502 47.5628C39.2146 47.2815 39.1776 46.8681 39.1567 46.5985C39.0797 46.5931 39.0026 46.5693 38.9249 46.5599C38.9767 46.3666 38.9932 46.3175 39.118 46.2127C39.0615 46.0359 38.7977 45.6823 38.8482 45.4796C38.8731 45.3764 38.9697 45.3868 39.0417 45.3256C38.9168 45.0615 38.9249 44.9949 39.118 44.8621C39.1052 44.8215 39.0279 44.682 39.0417 44.6316C39.0464 44.608 39.223 44.4756 39.2341 44.4386C39.2677 44.3102 39.1776 44.284 39.1958 44.1687C39.2042 44.1069 39.3192 43.9173 39.3502 43.8209C39.3149 43.7896 39.0797 43.474 39.0797 43.474C39.0134 43.4464 38.8717 43.5079 38.8095 43.474C38.8011 43.4693 38.8142 43.3728 38.8095 43.3587C38.7473 43.1967 38.5518 43.2316 38.3849 43.2427C38.355 43.191 38.322 43.0303 38.2688 43.0118C38.1655 42.9738 38.2278 43.351 38.2301 43.3587C37.9263 43.4027 37.7803 43.4316 37.6124 43.5896C37.3076 43.874 37.282 44.5869 37.1478 44.9909L36.8016 45.4026C36.774 45.4187 36.6838 45.4534 36.6475 45.4796C36.6805 45.7051 36.6969 45.8406 36.5314 45.9421C36.1852 46.1532 36.2276 45.8409 36.1842 45.8268C36.1334 45.8103 36.0752 45.8486 36.0298 45.8268C36.0298 45.8268 35.9679 45.9522 35.9527 45.9811C36.0163 46.0234 36.0335 45.9969 36.1072 46.0197C36.0974 46.0439 36.0681 46.135 36.0681 46.135C36.0321 46.1101 35.9527 46.1532 35.9137 46.135C35.8972 46.1269 35.8848 46.0137 35.875 45.9811C35.8515 45.9891 35.6758 46.05 35.7206 46.0584C35.6452 46.129 35.5298 46.3209 35.4511 46.3666C35.3673 46.4126 35.3905 46.3091 35.296 46.3279C35.1153 46.3646 34.9905 46.7514 34.9488 46.9457C34.8858 46.9245 34.7772 46.9703 34.7173 46.9457C34.7085 46.942 34.7173 46.8415 34.7173 46.8298C34.7173 46.8298 34.7062 46.6267 34.4464 46.6751C34.4152 46.6799 34.285 46.8163 34.2533 46.8298C34.1521 46.8667 33.9943 46.815 33.8678 46.8681C33.7587 46.9114 33.6262 47.1733 33.5199 47.2539C33.3456 46.9128 33.2558 47.0681 33.0569 47.2539C32.633 46.9155 31.8921 47.388 31.4352 47.0607C31.3087 46.9703 31.3198 46.5599 31.3198 46.5599C31.3144 46.5343 31.3353 46.4009 31.2811 46.4436C31.4484 46.3044 31.4248 46.1679 31.551 45.9811C31.592 45.9175 31.7438 45.8863 31.7828 45.8268C31.844 45.7293 31.7986 45.6097 31.8598 45.5186C31.8817 45.4843 31.9988 45.4786 32.0146 45.4409C32.0395 45.3764 31.9947 45.2776 32.0146 45.2097C32.0445 45.212 32.1461 45.2591 32.2077 45.2867C32.3786 45.0433 32.559 45.0033 32.7867 44.8238C32.9274 44.7109 33.035 44.5163 33.1723 44.3996C33.3829 44.2175 33.6316 44.1287 33.8678 43.9751C33.9906 43.8945 34.0895 43.7032 34.215 43.6283C34.2564 43.6034 34.3216 43.6437 34.3697 43.6283C34.5289 43.5728 34.6914 43.3533 34.8327 43.2811C35.2176 43.0797 35.5688 43.0421 36.0298 42.8952C36.2771 42.8152 36.7693 42.5651 37.0728 42.5097C37.4294 42.4435 37.8298 42.4821 38.076 42.4327C38.176 42.4122 38.2631 42.2905 38.4233 42.3167C38.4784 42.3258 38.508 42.463 38.5393 42.471C38.5989 42.4845 38.7325 42.3893 38.8095 42.3941C38.9569 42.4028 39.1486 42.595 39.2725 42.6256C39.3512 42.6438 39.4609 42.5803 39.5813 42.6256V42.6639C39.6833 42.7184 39.7751 42.7658 39.8905 42.8186C39.8905 42.8293 39.8824 42.9315 39.8905 42.9339C40.0978 42.9991 40.2149 42.8444 40.5466 42.9728C40.5193 42.9557 40.4204 42.8303 40.3922 42.8186C40.3511 42.8787 40.3535 42.7409 40.3535 42.7409C40.3875 42.7097 40.5358 42.6256 40.5466 42.587C40.5806 42.4482 40.4806 42.071 40.4312 41.8926C40.3659 41.6623 40.0059 41.3914 40.0059 41.3914C40.0059 41.3659 40.0214 41.2503 40.0059 41.2368C39.9743 41.2069 39.8542 41.255 39.8135 41.2368C39.7553 41.2116 39.8135 41.1151 39.7751 41.0829C39.6974 41.0173 39.2183 40.7162 39.1567 40.697C38.8553 40.6005 38.6517 40.7185 38.3079 40.697C38.1783 40.6886 38.001 40.5451 37.8439 40.5427C37.7766 40.5417 37.6272 40.6523 37.5741 40.6587C37.2121 40.697 36.8672 40.6597 36.4544 40.774C36.3908 40.7911 36.2999 40.9151 36.2612 40.9279C36.0792 40.984 35.9245 40.9034 35.7596 40.9669C35.6782 40.9975 35.6169 41.1817 35.7206 41.1988C35.3925 41.3057 35.2543 41.4375 34.9104 41.5457C34.8949 41.4906 34.9222 41.4082 34.8717 41.3914H34.794C34.7486 41.5057 34.5736 41.8687 34.4464 41.8926C34.4071 41.9 33.9768 41.7299 33.9061 41.6996C33.9576 41.7988 33.97 41.8458 34.0225 41.9312C33.7032 42.0351 33.3193 42.0929 33.0956 41.9699C33.0593 42.2892 33.1353 42.4233 33.0569 42.7409C32.7396 42.6821 32.2922 43.0969 32.2077 42.5487C32.17 42.7487 32.1384 42.789 31.8989 42.8569C31.8756 43.1762 31.8699 43.6585 31.551 43.7829C31.515 43.7963 31.4258 43.7573 31.3965 43.7829C31.2044 43.9469 31.4413 43.9886 31.1267 43.9368C31.1132 43.9735 31.1156 44.0471 31.088 44.0528C31.088 44.0528 31.1893 44.1287 31.1651 44.1297C30.9595 44.1355 31.0291 43.9704 30.9336 43.8985C30.8878 43.9173 30.7913 43.8985 30.7405 43.8985L30.7018 44.0908C30.5864 44.1405 29.8681 44.0632 29.7749 44.0528C29.5252 44.0225 29.0088 44.0692 28.7329 44.1687C28.7097 44.1748 28.6774 44.278 28.6555 44.284C28.5502 44.3116 28.5071 44.2343 28.3466 44.284V44.3227C28.2322 44.3815 27.8823 44.4138 27.806 44.5149C27.7784 44.5506 27.7976 44.6457 27.7669 44.6699C27.6657 44.7469 27.5311 44.7193 27.4197 44.7855C27.416 44.7869 27.3814 44.9015 27.3814 44.9015C27.1193 45.0541 26.6718 45.1075 26.4551 45.2867C26.4016 45.3303 26.3717 45.4591 26.3387 45.5186C25.9158 45.4097 26.0554 45.5784 25.798 45.6729C25.6355 45.7303 25.4532 45.6799 25.258 45.7878C25.2389 45.7982 25.2008 45.8977 25.181 45.9038C24.9186 45.9703 24.8065 45.9149 24.5246 46.0197L24.5629 46.3279L24.4472 46.2896C24.4472 46.2896 24.4122 46.0752 24.4085 46.0584C24.4085 46.0584 24.2944 46.0957 24.2931 46.0967C24.2635 46.3787 24.3449 46.3908 24.061 46.3279C24.068 46.3525 24.1151 46.4762 24.1 46.4829C23.9082 46.5394 23.639 46.3992 23.5596 46.4056C23.493 46.4093 23.4863 46.5057 23.4436 46.5209C23.3359 46.5562 23.2087 46.4943 23.096 46.5209C23.0536 46.5289 22.8918 46.6691 22.8258 46.6751C22.7374 46.6825 22.6798 46.6116 22.555 46.6368C22.2522 46.6956 21.8794 46.9998 21.5517 47.0607C21.3727 47.0939 21.1823 47.0116 20.9333 47.0607C20.7062 47.1044 20.3563 47.3286 20.1619 47.3309C20.0454 47.3322 20.0256 47.2361 19.891 47.2539C19.8843 47.2539 19.7958 47.3632 19.7756 47.3696C19.6488 47.4032 19.0327 47.3857 18.9261 47.3696C18.9056 47.3662 18.7925 47.2549 18.772 47.2539C18.5489 47.2307 18.4167 47.3733 18.1923 47.3696C18.1576 47.3679 17.9988 47.2603 17.9611 47.2539C17.6607 47.2018 17.5641 47.2603 17.2273 47.1766C17.2273 47.1649 17.2344 47.062 17.2273 47.0607C17.1156 47.0261 16.9548 47.0825 16.8411 47.0607C16.5834 47.0103 16.3647 46.7451 16.1854 46.5985C16.1379 46.5599 16.0198 46.538 15.9919 46.4829C15.9354 46.3716 16.0087 46.251 15.9532 46.135C15.9132 46.0533 15.7036 45.897 15.6447 45.7498C15.7096 45.7024 15.6447 45.5569 15.6447 45.5569C15.675 45.5569 15.6834 45.1714 15.6834 45.1714C15.8435 44.8373 15.7046 44.641 15.9919 44.5149C15.9462 44.3193 15.9344 44.3116 15.9919 44.0908C15.9391 44.1035 15.9297 44.1459 15.8378 44.1297C15.8748 44.0047 16.1416 43.4222 16.2234 43.3587C16.2759 43.3163 16.3983 43.3624 16.4549 43.32L16.4939 43.1268C16.8596 43.0028 16.8283 42.8122 17.1119 42.587C17.1839 42.5282 17.2674 42.5698 17.3434 42.5097C17.4171 42.4492 17.4124 42.2905 17.4975 42.2398C17.6254 42.1615 17.768 42.1951 17.8834 42.1245C18.021 42.0374 18.0045 41.8845 18.1152 41.7769C18.2374 41.6563 18.4712 41.6445 18.6559 41.584C18.6559 41.501 18.6384 41.3951 18.6559 41.3141C18.8053 41.2691 19.0008 41.2674 19.0422 41.2368C19.0549 41.2264 19.0422 41.1047 19.0422 41.0829C19.28 40.9518 19.4096 40.8503 19.6599 40.7357C19.6498 40.7091 19.6215 40.6197 19.6215 40.6197C19.7383 40.4658 20 40.4957 19.814 40.3498C19.7665 40.3115 19.7756 40.2338 19.7756 40.2338C19.9644 40.1774 20.0771 40.1545 20.2386 40.0799C20.2339 40.0715 20.1915 40.0053 20.2002 40.0026C20.36 39.9481 20.5212 40.0328 20.7025 39.887C20.8062 39.8016 20.8533 39.6134 20.9724 39.5398C21.011 39.5146 21.1005 39.534 21.1264 39.5018C21.1823 39.4292 21.1332 39.3206 21.2042 39.2699C21.3973 39.1294 21.6274 39.1277 21.8219 39C21.9521 38.9116 22.0557 38.7828 22.2075 38.6917C22.198 38.6645 22.1694 38.5758 22.1694 38.5758C22.2694 38.4793 22.3902 38.5381 22.5167 38.4602C22.5614 38.4313 22.4783 38.3829 22.4783 38.3829C22.6132 38.2887 22.6351 38.2656 22.7098 38.1126C22.8077 38.1126 22.811 38.1758 22.9022 38.1126C22.9022 38.1116 22.7858 37.9694 22.9413 37.92C23.4123 37.7681 22.8511 38.3287 22.7481 38.4215C23.0755 38.2669 23.1344 38.1405 23.5206 38.1126C23.6666 37.7762 23.7127 37.6316 23.9459 37.4569C23.9328 37.433 23.8897 37.4041 23.9069 37.3799C23.9163 37.3634 24.0515 37.3187 24.061 37.3029C24.1952 37.0468 24.0953 37.0317 24.3695 36.9171C24.3695 36.9171 24.2302 36.8569 24.2544 36.8398C24.2988 36.8058 24.3967 36.8663 24.4472 36.8398C24.459 36.833 24.4808 36.6653 24.4862 36.6472C24.637 36.6236 24.6935 36.6667 24.7947 36.5702C24.8361 36.5292 24.8008 36.424 24.8338 36.3776C24.8644 36.3295 24.9963 36.3141 25.0262 36.2613C25.1339 36.0637 25.0467 35.948 25.181 35.8371C25.2742 35.7578 25.4024 35.8022 25.4895 35.7212C25.508 35.7033 25.4791 35.6311 25.4895 35.6059C25.5215 35.5212 25.9642 35.1948 26.0689 35.0657C26.1843 35.0862 26.2075 35.0946 26.3387 35.1047C26.3562 35.0395 26.3104 34.9383 26.3387 34.8731L26.3774 34.8338C26.6213 34.7488 26.5799 34.5417 26.6859 34.4869C26.799 34.4271 26.9857 34.4893 27.0341 34.4869C27.1159 34.2654 27.1798 34.2271 27.3814 34.1401C27.2088 34.006 27.5667 33.6352 27.6515 33.4847C27.74 33.5482 27.7353 33.5448 27.8447 33.5999L27.9217 33.446C27.9826 33.1906 27.9106 33.2225 28.1532 33.1371C28.1152 32.8302 28.2921 32.7153 28.6555 32.636C28.6679 32.5553 28.6232 32.4393 28.6555 32.3661C28.6737 32.3237 28.8116 32.3214 28.8486 32.2888C28.9388 32.2061 29.1191 31.749 29.1191 31.749L29.0801 31.6716C29.1662 31.6256 29.2106 31.6101 29.2318 31.6071C29.2355 31.5853 29.253 31.5372 29.3122 31.4401C29.3122 31.4401 29.3903 31.3843 29.4276 31.3591V31.3248C29.4805 31.2811 29.6894 31.2236 29.6985 31.2088C29.7839 31.0377 29.6736 30.9403 29.6595 30.8613C29.6773 30.8458 29.755 30.8724 29.7749 30.8613C29.785 30.8556 29.7668 30.7618 29.7749 30.746C29.8448 30.6001 30.0864 30.5037 30.2001 30.4761C30.1759 30.4048 30.22 30.4082 30.2388 30.3601C30.2069 30.3336 30.0841 30.2059 30.0841 30.2059C30.2129 30.2395 30.551 29.4876 30.6247 29.2419C30.5497 29.2009 30.5403 29.2466 30.5087 29.1649C30.7223 29.179 31.0127 29.1884 30.9336 28.856L30.8949 28.779C30.9733 28.7001 31.2256 28.5918 31.2811 28.5088C31.4655 28.2308 31.3353 27.5909 31.3198 27.3129C31.3047 27.0682 31.4366 26.5708 31.3965 26.4259C31.3787 26.3647 31.2135 26.2696 31.2034 26.2333C31.1492 26.0414 31.3292 25.9342 31.1651 25.8478C31.1021 25.8138 30.9649 25.7779 30.9336 25.7708C30.8996 25.4767 30.8972 25.4159 30.6627 25.385C30.7257 25.2243 30.7186 25.192 30.7788 25.0761C30.4908 24.9678 30.5992 24.8556 30.4696 24.7678C30.4023 24.7201 30.405 24.8119 30.3542 24.8062C30.2943 24.7991 30.183 24.665 30.1221 24.6522C29.8469 24.59 29.4865 24.5759 29.1962 24.6132C28.8459 24.6566 28.35 24.8751 27.9604 25.0378C27.8541 25.0808 27.6401 25.2861 27.5361 25.3073C27.4127 25.3308 27.3703 25.2297 27.2266 25.269C27.0193 25.3255 26.6442 26.0932 26.4164 26.2333C26.3303 26.2847 26.2586 26.2202 26.2233 26.2333C26.0759 26.2847 26.0948 26.4901 25.9912 26.5809C25.8946 26.6625 25.7523 26.6212 25.6439 26.6961C25.5767 26.7405 25.5484 26.8709 25.4895 26.9277C25.4014 27.0077 25.2752 27.0003 25.181 27.082C25.0515 27.1919 25.0373 27.4336 24.9101 27.5448C24.7924 27.645 24.644 27.645 24.5246 27.7378C24.2978 27.9112 24.1235 28.205 23.9069 28.3928C23.8621 28.4308 23.7413 28.4631 23.7137 28.5088C23.6909 28.5448 23.703 28.6954 23.636 28.779C23.563 28.8681 23.2851 28.9847 23.2504 29.0873C23.2309 29.1377 23.278 29.2378 23.2504 29.2802C23.1996 29.3525 23.1297 29.2637 23.0577 29.3188C23.0378 29.332 23.0344 29.4852 23.019 29.5118C22.9271 29.6576 22.6398 29.7343 22.5167 29.859C22.4278 29.947 22.482 30.0566 22.4006 30.1672C22.3393 30.2495 22.2522 30.1796 22.1694 30.2448C22.1509 30.2576 22.1782 30.3359 22.1694 30.3601C22.1244 30.4747 21.8118 30.5554 21.7448 30.669C21.686 30.7655 21.7425 30.8119 21.7058 30.8613C21.6611 30.9208 21.6436 30.8882 21.5517 30.8999C21.4646 31.1608 21.1702 31.3618 21.4363 31.517C21.19 31.55 21.1053 31.6283 20.8566 31.633C20.7816 31.7883 20.8014 31.9271 20.7025 32.0578C20.6238 32.1577 20.5377 32.0911 20.4317 32.1728C20.3244 32.2555 20.3523 32.397 20.2776 32.52C20.1373 32.7455 19.8335 32.9472 19.6982 33.1758C19.6733 33.2171 19.5899 33.6319 19.5825 33.6389C19.561 33.6581 19.4227 33.6389 19.3897 33.6389C19.2979 33.8517 19.3194 33.9135 19.0812 33.9471C19.0664 34.0171 19.1 34.0389 19.1192 34.1011C18.956 34.2234 18.8995 34.3259 18.772 34.4869C18.7134 34.5582 18.4958 34.6416 18.4628 34.7189C18.4049 34.85 18.4944 34.9841 18.5405 35.1814C18.4416 35.2177 18.3709 35.2247 18.2697 35.2587C18.2697 35.2704 18.2771 35.3706 18.2697 35.3746C18.1923 35.4049 18.0405 35.2681 17.9611 35.4899C17.8945 35.6711 17.9776 35.8129 17.9998 35.9531C17.6415 36.0576 17.5359 35.9998 17.4595 36.4159C17.4242 36.4169 17.2745 36.4546 17.2273 36.4546C17.224 36.4757 17.2273 36.7628 17.2273 36.7628C17.2273 36.7628 17.045 36.9389 17.0342 36.9557C17.0342 36.9557 16.8976 37.1681 17.0733 37.11C17.0648 37.1436 17.012 37.3291 17.0342 37.3416C16.5881 37.1197 16.2648 38.1093 16.0309 38.4988C16.0134 38.5234 15.8896 38.5358 15.8762 38.5758C15.8577 38.6228 15.9001 38.7287 15.8762 38.7687C15.8345 38.8322 15.7389 38.7953 15.6834 38.8457C15.6322 38.8894 15.4738 39.1845 15.4516 39.2315C15.3345 39.4581 15.385 39.6305 15.5286 39.7717C15.2884 39.7041 15.2043 39.7213 15.0653 39.9639C14.8581 40.3256 14.7592 40.6836 14.5637 41.0829C14.4897 41.2311 14.3076 41.3736 14.2545 41.5457C14.2037 41.707 14.2716 41.8405 14.2165 42.0082C14.1855 42.0952 13.8817 42.3124 13.8689 42.3167C14.0314 42.2509 14.0927 42.2431 14.2165 42.1628C14.2447 42.1423 14.306 42.0586 14.3315 42.0468C14.5331 41.9527 14.3581 42.1245 14.4476 42.1628C14.2942 42.224 14.0085 42.3134 14.2928 42.3941C14.0937 42.5315 13.9382 42.6582 13.7138 42.7799C13.7138 42.8038 13.7286 42.9197 13.7138 42.9339C13.6913 42.9533 13.5533 42.9339 13.5214 42.9339C13.4766 43.034 13.4945 43.0535 13.4436 43.1268C13.4097 43.115 13.3377 43.0824 13.3282 43.0881C13.3767 43.1291 13.27 43.231 13.405 43.2041C13.3942 43.2175 13.3242 43.3174 13.3282 43.32C13.233 43.3046 13.2196 43.2851 13.1351 43.2427C13.0964 43.3291 13.1011 43.275 13.0191 43.32C13.0191 43.352 13.0399 43.5308 13.0191 43.5516C12.9857 43.5815 12.942 43.5126 12.942 43.5126C12.8185 43.5126 12.3569 43.874 12.2472 43.9368C12.1914 43.9667 12.1026 43.9345 12.0541 43.9751C12.0296 43.995 12.047 44.1092 12.0154 44.1297C11.8923 44.2081 11.7715 44.1634 11.6679 44.2457C11.61 44.2904 11.4667 44.5203 11.4748 44.5149V44.5929C11.5279 44.6057 11.7069 44.6699 11.7069 44.6699C11.5195 44.7549 10.6939 45.0315 10.6259 45.1327C10.6175 45.1421 10.5822 45.3666 10.5482 45.4409C9.91935 45.4567 10.243 45.6339 9.8921 45.7878C9.69292 45.8738 9.64615 45.8355 9.50586 45.9421C9.5755 46.0654 9.5543 46.0943 9.62126 46.2127C8.98066 46.3068 9.04257 46.6597 8.61797 46.7138C8.66743 46.8644 8.64556 46.8738 8.69501 47.022C8.60552 47.0597 8.53789 47.0183 8.46354 47.0607C8.43191 47.0768 8.37169 47.2455 8.34713 47.2539C8.30642 47.2664 7.87374 47.1679 8.07729 47.3309C8.11632 47.3622 8.11632 47.3309 8.11632 47.3309C8.28926 47.3904 8.45647 47.388 8.23172 47.5238C8.03726 47.6398 7.77819 47.6314 7.57565 47.7168C8.03625 47.9843 7.37244 47.909 7.34384 47.909H7.30481C7.1847 47.9544 7.10698 48.2223 6.99629 48.2956C6.98821 48.3003 6.44989 48.5567 6.41692 48.5655C6.32507 48.5866 6.19386 48.5302 6.1084 48.5655C6.03741 48.592 6.16358 48.7265 6.03068 48.7967C6.08888 48.7896 6.16593 48.7402 6.2238 48.7197C6.05423 49.0525 6.17569 49.1231 5.68346 49.2978C5.78473 49.2978 5.68346 48.9127 5.68346 48.9127C5.63838 48.8787 5.66563 48.8562 5.64444 48.7967C5.57008 48.8256 5.38638 48.9463 5.33591 48.9506C5.09098 48.9678 5.27838 48.7026 4.91131 49.0286C4.65831 49.2515 4.41202 49.6114 4.1395 49.7997C4.15834 49.8642 4.19367 49.8874 4.17786 49.9536C3.97397 49.9889 3.99348 49.9597 4.06178 49.9919C4.13715 50.0272 4.05943 50.0877 4.1395 50.1079C4.1395 50.1079 4.07457 50.2363 4.06414 50.2578C4.08634 50.2914 4.1395 50.3785 4.1395 50.3785C4.14993 50.4443 4.09105 50.4833 4.06178 50.5327C4.3915 50.5613 4.33262 50.6709 4.21588 50.9183C4.10417 50.8725 4.2189 51.0796 4.2549 50.9952C4.48806 51.1001 4.44567 51.1784 4.33262 51.4197C4.4561 51.5276 4.46855 51.4843 4.5641 51.5737C4.5641 51.5737 4.53651 51.6396 4.48672 51.6123C4.48335 51.6197 4.44802 51.7266 4.44802 51.728C4.53382 51.7596 4.6398 51.7942 4.67984 51.8056C4.67984 51.8056 4.59741 51.8886 4.64115 51.9206C4.74242 51.9979 4.85311 51.9562 4.98836 51.9979C5.03445 51.8974 5.04388 51.7854 5.06608 51.728C5.4493 51.6843 5.49539 51.7303 5.52903 51.4197C5.58421 51.4221 5.64073 51.4567 5.64444 51.4577C5.56302 51.4268 5.56672 51.609 5.76118 51.5737C5.86582 51.5545 6.34728 51.1972 6.45595 51.1109C6.45359 51.1061 6.4038 51.0396 6.41692 51.0339C6.55958 50.9677 6.59726 51.0383 6.68709 50.9566C6.74799 50.9008 6.66993 50.8554 6.68709 50.841C6.57875 50.8638 6.57001 50.881 6.45595 50.8796C6.46503 50.848 6.49464 50.7636 6.49464 50.7636C6.63191 50.7845 6.69483 50.8278 6.84219 50.802C6.99864 50.7747 7.01412 50.6067 7.11169 50.5327C7.35898 50.3395 7.68533 50.2995 7.9232 50.1079C7.94541 50.0891 7.93834 49.9708 7.96122 49.9536C8.05778 49.879 8.17621 49.9103 8.27042 49.838C8.39961 49.7365 8.47666 49.5442 8.61797 49.4528C8.72967 49.3775 8.88174 49.4172 9.00421 49.3368C9.09202 49.276 9.14014 49.0538 9.23535 48.9896C9.37935 48.8922 9.52705 48.9016 9.66028 48.7967C9.9392 48.5739 9.95333 48.3927 10.2783 48.2186C10.2783 48.2186 10.2706 48.028 10.2783 47.9867C10.3914 48.0045 10.3325 48.0566 10.4715 48.064C10.495 48.064 10.3937 47.911 10.3937 47.909C10.6145 47.8267 10.6653 47.741 10.8187 47.6398C10.998 47.5191 11.2261 47.5285 11.397 47.4079L11.5908 47.2539C11.6036 47.225 11.5676 47.1171 11.5908 47.0997C11.6595 47.0408 11.7416 47.0738 11.8223 47.022C12.0319 46.8825 11.9865 46.7125 12.3239 46.6368C12.3122 46.6321 12.3239 46.4997 12.3239 46.4829C12.2059 46.4778 12.0979 46.4829 11.9764 46.4829C11.9848 46.455 12.0154 46.3666 12.0154 46.3666C12.2533 46.3337 12.3145 46.3679 12.4787 46.4056C12.5194 46.2943 12.6136 46.1474 12.7879 46.0967C12.832 46.0819 12.9444 46.1209 12.981 46.0967C13.0009 46.0819 12.9181 45.967 12.9033 45.9421C13.1388 45.8463 13.2589 45.776 13.5214 45.6729C13.515 45.6772 13.5214 45.7834 13.5214 45.7878C13.5691 45.7411 13.5597 45.8268 13.5597 45.8268C13.5274 45.8496 13.4251 45.9461 13.405 45.9811L13.3666 46.135C13.4295 46.1199 13.4608 46.0873 13.5214 46.0584C13.5049 46.1874 13.3871 46.8103 13.4827 47.0997L13.6368 47.138C13.6405 47.2264 13.6758 47.417 13.6758 47.4469C13.6721 47.5215 13.5826 47.5937 13.5981 47.6398C13.6193 47.7043 13.803 47.741 13.8302 47.8327C13.877 47.9974 13.771 48.2109 13.8302 48.3725C13.883 48.5184 14.1599 48.4908 14.2928 48.5655C14.4453 48.6495 14.5166 48.9174 14.6791 48.9896C14.7804 49.034 14.7827 48.9231 14.8722 48.9506C14.8722 48.9506 14.9099 49.0656 14.9112 49.0666C15.6265 49.0666 16.3385 49.3567 17.1119 49.2595C17.3192 49.2326 17.5184 49.1369 17.8067 49.1049C17.8067 49.1022 17.8451 48.9896 17.8451 48.9896C18.1731 48.8831 18.2808 48.9574 18.6559 48.8737C18.7666 48.8485 18.9513 48.6666 19.0422 48.6421C19.1024 48.6256 19.2195 48.6703 19.2736 48.6421C19.3123 48.6209 19.4089 48.3937 19.6215 48.3725C20.0579 48.3255 20.4223 48.4747 20.8179 48.4108C20.8903 48.3991 21.1631 48.2451 21.2432 48.2569C21.2607 48.2593 21.4044 48.3856 21.4363 48.4108C21.4757 48.2737 21.5093 48.1856 21.5517 48.064C21.7411 48.0878 21.9121 48.1544 22.1694 48.064C22.1853 48.0579 22.23 47.9504 22.2465 47.9487C22.3454 47.9255 22.5133 48.0246 22.7098 47.9487C22.7966 47.9134 22.88 47.7504 22.9799 47.7168C23.0779 47.6821 23.3261 47.7504 23.5206 47.6784C23.5617 47.6627 23.6219 47.5043 23.6747 47.4855C23.7945 47.4395 24.2907 47.5709 24.4472 47.5238C24.4943 47.509 24.5851 47.2731 24.6403 47.2539C24.7816 47.2032 25.1467 47.2492 25.2964 47.2156C25.3664 47.1985 25.5837 46.9864 25.6439 46.9837C25.6826 46.9813 25.8616 47.0644 25.9528 47.0997C25.9817 47.055 26.0325 46.8825 26.0689 46.8681C26.1796 46.822 26.3387 46.8936 26.4551 46.8681C26.5201 46.8526 26.6213 46.7319 26.6859 46.7138C26.7926 46.6825 26.8373 46.7686 26.9181 46.7525C26.9191 46.7514 26.9181 46.6462 26.9181 46.6368C27.0745 46.5921 27.2912 46.6009 27.4974 46.5599C27.4998 46.5585 27.5977 46.4486 27.6128 46.4436C27.8117 46.3716 27.8749 46.4705 28.0768 46.4056C28.1804 46.3716 28.3187 46.1185 28.4244 46.0967C28.6269 46.052 28.7702 46.1585 29.0414 46.0967C29.3731 46.702 29.0949 47.1891 29.505 47.6784C29.6241 47.8203 29.8206 47.7974 29.9296 47.871C29.9727 47.8999 29.9528 47.9628 29.968 48.0257C30.2348 48.0915 30.4165 48.2542 30.6247 48.2956L31.5123 48.5268C31.6596 48.5597 31.6438 48.3463 31.7828 48.3339C31.8686 48.3255 31.7343 48.4266 31.8215 48.4495C31.9369 48.4797 32.0395 48.429 32.169 48.4108C32.1643 48.4233 32.09 48.5036 32.13 48.5268H32.2077L32.5166 48.4881L32.5936 48.2956C32.8567 48.2845 33.3779 48.3507 33.7517 48.2956C33.823 48.2845 34.1063 48.1504 34.1769 48.1409C34.3334 48.1167 34.543 48.1806 34.6396 48.1799C34.7566 48.1762 35.0463 48.0485 35.1802 48.0257C35.2903 48.0045 35.2825 48.0902 35.3734 48.064C35.3791 48.0613 35.3734 47.9591 35.3734 47.9487C35.9255 47.8751 35.7041 47.7238 36.1072 47.4855C36.2071 47.6179 36.307 47.7625 36.5314 47.6784C36.599 47.6516 36.6004 47.5685 36.6475 47.5238C36.5449 47.508 36.5095 47.5191 36.4544 47.5238C36.6889 47.4227 36.9113 47.1951 37.2652 47.1766C37.1131 47.0778 37.1468 47.0287 37.1878 46.8298C37.2221 46.8298 37.3143 46.8479 37.3423 46.8298C37.3375 46.9444 37.3571 47.062 37.3423 47.2539C37.3315 47.2539 37.2269 47.2516 37.2269 47.2539C37.4112 47.4203 37.0761 47.5951 37.3813 47.7551C37.3281 47.8442 37.282 47.9083 37.2269 48.0257C37.2692 48.0455 37.3705 48.0257 37.42 48.0257C37.572 48.305 37.4089 48.1184 37.6898 48.2569C37.6871 48.2593 37.6414 48.3302 37.6515 48.3339C37.7214 48.3554 37.5246 48.3268 37.42 48.2956C37.4378 48.3278 37.4963 48.4495 37.4963 48.4495C37.6377 48.4603 37.8792 48.4317 37.9216 48.4495L37.8543 48.6502C37.8543 48.6502 38.175 49.0185 38.1531 49.0286C38.0841 49.0555 38.0064 49.0525 37.9603 49.0666C38.183 49.1127 38.1894 49.1748 38.1531 49.3748C38.2335 49.3301 38.3159 49.3221 38.3849 49.2978C38.3849 49.2945 38.3785 49.1863 38.3849 49.1819C38.1077 48.9184 38.468 49.1284 38.5393 49.4138C38.5787 49.4239 38.7002 49.4239 38.7325 49.4528C38.7446 49.4632 38.7247 49.5516 38.7325 49.5677C38.7601 49.6414 39.044 49.8067 39.118 49.838C39.2395 49.8891 39.3926 49.8413 39.5043 49.9156C39.5174 49.9237 39.5043 50.0477 39.5043 50.0699C39.6241 50.1055 39.6738 50.1032 39.8135 50.1469C39.8091 50.1526 39.7657 50.2225 39.7751 50.2238C39.9171 50.243 39.8663 50.0938 40.1227 50.1469C40.1496 50.1516 40.0059 50.2238 40.0059 50.2238C40.3474 50.4561 40.37 50.3267 40.7397 50.2625C40.4783 50.3338 40.695 50.4339 40.8558 50.4937C40.9476 50.528 41.134 50.5432 41.2037 50.6097C41.2118 50.6178 41.242 50.7636 41.242 50.7636C41.5253 50.8756 41.67 50.6326 41.8984 50.725C41.9032 50.7267 41.8295 50.8278 41.8207 50.841C41.8641 50.8786 41.8971 50.9166 41.9368 50.9566C41.9926 50.9132 42.0455 50.8362 42.0916 50.802L42.7581 51.048L43.7513 51.1109C43.7651 51.0702 43.7906 50.9798 43.8286 50.9566C43.8875 51.012 43.865 51.0651 43.9064 51.1495C44.2818 51.1714 44.3289 51.204 44.6775 51.2268C44.9117 51.2413 45.2269 51.1603 45.45 51.2268C45.45 51.2268 45.526 51.3797 45.528 51.3808C45.5573 51.3902 45.5937 51.3071 45.8366 51.3808C45.8457 51.3367 45.8366 51.2315 45.8753 51.2268C45.88 51.2255 46.14 51.2977 46.2608 51.3038C46.2104 51.289 46.3981 51.2604 46.4156 51.2655V51.3421C46.6854 51.3206 46.8183 51.2796 46.9946 51.2268C47.0505 51.3592 47.074 51.4113 47.1107 51.4967C47.2577 51.4631 47.4509 51.4497 47.612 51.3808C47.612 51.3808 47.6934 51.2349 47.8055 51.2268C47.8973 51.2184 48.1103 51.3713 48.1917 51.3808C48.37 51.4002 48.7805 51.2759 49.0406 51.3038C49.0725 51.3061 49.2149 51.3939 49.2727 51.3808C49.3269 51.368 49.3444 51.2349 49.4268 51.2268C49.4679 51.2218 49.8083 51.3875 49.8521 51.3808C49.8766 51.376 49.9887 51.1912 50.0062 51.1878C50.203 51.1384 50.1794 51.3162 50.3537 51.2655C50.3995 51.2507 50.3147 51.1109 50.3147 51.1109C50.3561 51.0954 50.4197 51.1072 50.4301 51.0725C50.5479 51.1132 50.6528 51.2463 50.8554 51.2655C51.0202 51.2809 51.1851 51.1626 51.2803 51.1495C51.3674 51.1361 51.6067 51.2268 51.6279 51.2268C51.7396 51.2245 51.9623 51.1149 52.0518 51.1109C52.1658 51.1051 52.3495 51.1925 52.5157 51.1878C52.6843 51.1821 53.0315 51.1337 53.2105 51.1109L53.2495 50.9952C53.2707 50.9892 53.3989 51.0537 53.4403 51.0715C53.4568 51.0715 53.5049 51.0715 53.5214 51.0719C53.8713 51.0191 54.0442 50.9462 54.4069 50.9952L54.4459 50.841C54.5425 50.8289 54.6189 51.0161 54.7545 50.9952C54.7932 50.9878 54.7168 50.841 54.7168 50.841C55.0606 50.9314 55.1384 50.881 55.3338 50.6867C55.3796 50.7119 55.4812 50.6601 55.527 50.6867C55.535 50.6914 55.527 50.8221 55.527 50.841C55.528 50.841 55.6424 50.8796 55.6424 50.8796C55.68 50.8591 55.6965 50.7152 55.7968 50.6867L56.2994 50.725C56.3301 50.7267 56.4007 50.8131 56.4926 50.802L56.5689 50.6867C56.6433 50.6662 56.9283 50.6867 57.1096 50.6867C57.1096 50.6648 57.0978 50.4985 57.1096 50.4937C57.1648 50.4685 57.2637 50.5327 57.2637 50.5327C57.2637 50.5327 57.3074 50.6601 57.4959 50.6484C57.7643 50.6292 57.9067 50.489 58.1906 50.5327C58.1472 50.4709 58.0988 50.3986 58.0752 50.3395C58.0964 50.3274 58.1402 50.3536 58.1143 50.3008C58.1728 50.3227 58.2815 50.3008 58.3451 50.3008C58.3451 50.3267 58.3309 50.4857 58.3451 50.4937C58.3804 50.4662 58.4615 50.5156 58.4991 50.4937C58.5086 50.488 58.4991 50.358 58.4991 50.3395C58.6536 50.3892 58.8302 50.4615 58.9244 50.4551C59.1482 50.4373 59.1542 50.248 59.2716 50.2238C59.5189 50.1707 59.2504 50.3469 59.6192 50.1469C59.9358 50.3549 59.9183 50.2131 60.1985 50.1855C60.3762 50.1674 60.4751 50.2803 60.7002 50.2625C61.071 50.2316 61.1736 50.1018 61.5881 50.0699V49.9536C61.7472 49.9213 61.7153 50.0477 61.8199 50.0306L61.8589 49.9156C62.1533 49.8914 62.1947 49.9139 62.3606 49.9919C62.3723 49.9674 62.4147 49.8434 62.4373 49.838C62.8128 49.7462 63.0991 49.9126 63.2875 49.8766V49.7997C63.3709 49.802 63.4994 49.796 63.596 49.7997L63.6737 49.6454C63.8349 49.6114 63.8456 49.756 63.8668 49.761C63.9385 49.7768 64.3049 49.7432 64.4449 49.722C64.7971 49.6696 65.4872 49.5973 65.7971 49.4528C65.8357 49.4333 65.8876 49.2666 65.9121 49.2595C66.0914 49.2044 66.2728 49.355 66.3761 49.4138C66.3407 49.2337 66.295 49.1691 66.6069 49.1049C66.6082 49.1197 66.651 49.3691 66.6459 49.3368C66.724 49.3392 66.7835 49.4256 66.9544 49.3748C66.9746 49.3691 66.8781 49.2978 66.8781 49.2978C66.9766 49.279 67.0062 49.279 67.0712 49.2595C67.0473 49.2138 66.9931 49.1049 66.9931 49.1049C67.2737 49.0115 67.3397 49.2484 67.3797 49.2595C67.4571 49.2797 67.5691 49.2595 67.6502 49.2595C67.6246 49.2427 67.7104 49.2286 67.6502 49.1819C67.3313 48.9379 68.0425 49.1137 68.2673 49.1049C68.1872 49.0303 68.2154 49.0474 68.1899 48.9506C68.2511 48.9506 68.3285 48.9691 68.383 48.9506C68.383 48.9832 68.3618 49.1621 68.383 49.1819C68.4099 49.1701 68.4725 49.1819 68.4994 49.1819L68.4607 48.9127C68.4607 48.9127 68.6114 49.0303 68.6538 49.1049C68.5869 49.1221 68.6313 49.2209 68.7312 49.1819C68.8931 49.1184 68.8271 49.069 69.0401 49.1819C69.1484 49.0232 69.2059 48.9439 69.2709 48.835C69.3096 48.908 69.6312 49.1483 69.9667 49.0286C69.9667 49.0286 70.2543 48.6871 70.2752 48.6807C70.6015 48.5678 70.9208 48.6925 71.2021 48.5655C71.2573 48.6508 71.2717 48.7184 71.3175 48.7967L71.295 47.0318Z" fill="#FAB005"/>
</svg>