<svg width="72" height="86" viewBox="0 0 72 86" fill="none" xmlns="http://www.w3.org/2000/svg">
<g filter="url(#filter0_d)">
<path d="M33.9446 64.2573C18.8094 42.3157 16 40.0639 16 32C16 20.9543 24.9543 12 36 12C47.0457 12 56 20.9543 56 32C56 40.0639 53.1906 42.3157 38.0554 64.2573C37.0622 65.6921 34.9377 65.692 33.9446 64.2573Z" fill="#F03E3E"/>
<path fill-rule="evenodd" clip-rule="evenodd" d="M32.7615 35.9689C32.4612 36.4426 32.1292 36.9637 31.4653 37.4375C30.8331 37.8797 30.0269 38.1797 29.0941 38.1797C27.5135 38.1797 25 37.2323 25 33.8686C25 31.4684 26.391 29.447 29.1416 29.447C30.0585 29.447 31.6235 29.6998 32.6666 31.4209L30.8647 32.4474C30.7223 32.1474 30.5644 31.8632 30.169 31.5789C29.932 31.4209 29.6315 31.2947 29.2523 31.2947C27.9403 31.2947 27.4976 32.7949 27.4976 33.7897C27.4976 34.8793 28.0352 36.2531 29.3313 36.2531C29.4578 36.2531 30.0585 36.2531 30.5644 35.6848C30.7698 35.4478 30.8488 35.2582 30.9278 35.0215L32.7615 35.9689Z" fill="white"/>
<path fill-rule="evenodd" clip-rule="evenodd" d="M35.2591 33.553C35.2591 34.2478 35.3065 35.685 36.8081 35.685C38.0411 35.685 38.3256 34.7214 38.3256 33.553C38.3256 33.1582 38.2941 32.337 38.0253 31.9423C37.8355 31.6422 37.3931 31.3105 36.6975 31.3422C35.5435 31.3896 35.2591 32.3844 35.2591 33.553ZM38.3414 36.8218C37.8671 37.1378 37.2822 37.5166 36.1599 37.5166C35.4803 37.5166 34.8164 37.3429 34.2789 36.9797C33.1724 36.269 32.7456 34.9901 32.7456 33.5688C32.7456 31.9106 33.5201 29.5261 36.2549 29.5261C37.5194 29.5261 38.1042 30.0787 38.4679 30.4261V29.6524H40.7442V37.5798C40.7126 38.4799 40.6809 39.538 39.4794 40.2329C38.6417 40.7382 37.4089 40.8645 36.6659 40.8645C35.0219 40.8645 33.9471 40.296 33.5042 39.8382C32.8564 39.1907 32.8721 38.3538 32.8721 37.9115H35.3854C35.4169 38.2747 35.4487 38.7958 36.0968 39.0958C36.2549 39.1748 36.492 39.2537 36.8714 39.2537C38.3414 39.2537 38.3414 38.3853 38.3414 37.706V36.8218Z" fill="white"/>
<path fill-rule="evenodd" clip-rule="evenodd" d="M40.9208 28.9256C40.9204 28.9254 40.9201 28.9253 40.9201 28.9253C40.918 28.9253 40.9176 28.9253 40.9208 28.9256Z" fill="white"/>
<path fill-rule="evenodd" clip-rule="evenodd" d="M26.2101 28.6842C26.2102 28.6841 26.2108 28.683 26.2108 28.683C26.2077 28.6781 26.2062 28.6767 26.2101 28.6842Z" fill="white"/>
<path fill-rule="evenodd" clip-rule="evenodd" d="M42.434 27.1877H44.8525V29.6525H46.3607V31.3421H44.8368V35.053C44.8209 35.5584 44.8209 35.9847 45.4689 35.9847L46.3383 35.9532V37.8482C45.8166 37.9273 45.5005 37.9745 45.0582 37.9745C44.22 37.9745 43.3033 37.9273 42.7817 37.169C42.4498 36.6795 42.434 36.0953 42.434 35.3058V31.3264H41.2324V29.6504H42.434V27.1877Z" fill="white"/>
<path fill-rule="evenodd" clip-rule="evenodd" d="M40.9443 28.9253C40.9439 28.9253 40.9439 28.9255 40.9436 28.9255C40.9467 28.9255 40.9461 28.9255 40.9443 28.9253Z" fill="white"/>
<path fill-rule="evenodd" clip-rule="evenodd" d="M33.7666 23.0528V23.054C33.7753 23.0469 33.7731 23.0483 33.7666 23.0528Z" fill="white"/>
<path fill-rule="evenodd" clip-rule="evenodd" d="M33.7084 23.1268C33.7069 23.1391 33.7213 23.1254 33.7084 23.1268V23.1268Z" fill="white"/>
<path fill-rule="evenodd" clip-rule="evenodd" d="M30.1666 25.4209C30.1773 25.388 30.1831 25.3609 30.1896 25.3062L30.2239 25.2946C30.2243 25.2946 30.2629 25.3141 30.2815 25.3062C30.2862 25.3039 30.2787 25.277 30.2815 25.2716C30.2836 25.2667 30.3243 25.2537 30.3275 25.2486C30.3348 25.236 30.3324 25.1918 30.3275 25.2027L30.4381 25.0077C30.4395 25.0035 30.4938 24.9318 30.4952 24.928L30.5232 24.8694C30.5808 24.793 30.5263 24.7708 30.5576 24.6741C30.566 24.6476 30.6264 24.6214 30.6495 24.6053L30.6727 24.6282C30.6603 24.5479 30.6582 24.5176 30.7186 24.4789C30.7194 24.4827 30.7288 24.5356 30.7302 24.5364C30.7535 24.5479 30.7657 24.5195 30.7762 24.5248C30.7793 24.4773 30.8113 24.4241 30.8258 24.4024C30.8237 24.4052 30.8221 24.4073 30.8186 24.4119C30.9086 24.2952 30.8927 24.2178 30.9026 24.1456C30.9615 24.1456 30.9484 24.1712 30.9716 24.088C31.0906 24.1233 31.0842 24.0767 31.0407 23.9846C31.0866 23.9627 31.0522 23.9272 31.0522 23.9272C31.0873 23.9212 31.1165 23.9592 31.1558 23.9503C31.1729 23.946 31.1558 23.9159 31.1558 23.9159C31.1493 23.9416 31.1326 23.8928 31.1326 23.8928C31.1326 23.8928 31.1783 23.8238 31.1787 23.8238C31.1873 23.8289 31.1968 23.8603 31.2017 23.8697C31.2038 23.8683 31.2477 23.8354 31.2477 23.8354C31.2483 23.8326 31.2822 23.7895 31.2822 23.7895C31.2999 23.7125 31.3048 23.6332 31.3167 23.5825C31.3167 23.5825 31.3336 23.608 31.3398 23.6055C31.3487 23.6291 31.3621 23.6547 31.3743 23.6861C31.3822 23.6832 31.4084 23.674 31.4087 23.6745C31.4245 23.6073 31.4308 23.5373 31.4432 23.4448C31.4676 23.4453 31.4576 23.4146 31.4893 23.4218C31.4893 23.4218 31.5284 23.452 31.5353 23.4562C31.5403 23.4404 31.5339 23.4271 31.5468 23.3987C31.5574 23.3987 31.5974 23.4041 31.6043 23.3987C31.6104 23.3931 31.6043 23.3514 31.6043 23.3414C31.6392 23.3281 31.6231 23.351 31.6388 23.3183L31.5583 23.2723C31.5985 23.2501 31.6553 23.2422 31.6963 23.2148C31.7398 23.1851 31.7468 23.0952 31.7882 23.0656C31.8153 23.0454 31.8483 23.0587 31.8803 23.0426C31.9229 23.0202 31.9447 22.9476 31.9725 22.9277C32.0143 22.8964 32.0675 22.9085 32.0987 22.8702C32.1289 22.832 32.0962 22.8011 32.1335 22.7668C32.1629 22.7384 32.1977 22.7538 32.237 22.7322C32.2973 22.6983 32.3268 22.5898 32.4094 22.5371C32.4701 22.4978 32.426 22.5295 32.4439 22.4567C32.4439 22.4567 32.4713 22.4335 32.4554 22.4335C32.5022 22.4077 32.5373 22.4256 32.5704 22.4106C32.593 22.3999 32.5966 22.3473 32.6163 22.3301C32.6254 22.3219 32.6513 22.3352 32.6625 22.3301C32.6703 22.3263 32.666 22.2903 32.674 22.2842C32.689 22.2709 32.7167 22.2852 32.7314 22.2726C32.7491 22.2568 32.7439 22.2147 32.766 22.2037C32.7954 22.1883 32.8328 22.2052 32.8579 22.1922C32.8796 22.1808 32.9481 22.1015 32.9846 22.0774C32.9819 22.0724 32.9677 22.0579 32.973 22.0543C32.9849 22.0453 33.0172 22.0604 33.0305 22.0543C33.0452 22.0473 33.0604 21.9854 33.0765 21.974C33.1144 21.946 33.1624 21.9553 33.2031 21.928C33.2203 21.9158 33.2115 21.878 33.2375 21.8705C33.2533 21.8656 33.281 21.878 33.295 21.8705C33.321 21.8558 33.3207 21.8074 33.341 21.79C33.4185 21.7245 33.4776 21.7893 33.5711 21.6751C33.6376 21.6942 33.6142 21.6972 33.6862 21.6751C33.7867 21.8152 33.6803 21.966 33.6287 22.1004C33.6052 22.1604 33.6013 22.2086 33.5711 22.261C33.5483 22.2999 33.4978 22.3352 33.479 22.376C33.4495 22.4396 33.4557 22.4814 33.4215 22.5371C33.4046 22.5639 33.3581 22.5895 33.341 22.6175C33.3235 22.645 33.327 22.6837 33.3066 22.7093C33.2864 22.7333 33.2299 22.7387 33.2145 22.7668C33.2028 22.7871 33.217 22.8246 33.2031 22.8473C33.1854 22.8749 33.16 22.8493 33.134 22.8702C33.1169 22.8835 33.1343 22.9061 33.1224 22.9277C33.1161 22.9384 33.0837 22.9406 33.0765 22.9506C33.0519 22.9835 33.0556 23.0214 33.0305 23.054C33.01 23.0796 32.9363 23.1054 32.927 23.1344C32.9193 23.156 32.9316 23.1818 32.927 23.2034C32.9116 23.2026 32.8677 23.1912 32.8464 23.2034C32.8328 23.2108 32.8335 23.2579 32.8235 23.2723C32.8148 23.2837 32.7236 23.3456 32.7201 23.3528C32.693 23.4022 32.7161 23.44 32.674 23.4791C32.6341 23.5157 32.6221 23.4798 32.5819 23.5021C32.5384 23.526 32.5211 23.6311 32.4783 23.6629C32.4432 23.6889 32.3871 23.6802 32.3518 23.7088C32.3169 23.7365 32.3198 23.8207 32.2829 23.847C32.2638 23.8597 32.2306 23.8473 32.2138 23.8584C32.1686 23.8874 32.1577 23.9804 32.1104 24.0078C32.0658 24.0329 32.0177 24.0059 31.9725 24.0307C31.9587 24.0379 31.9612 24.0821 31.9493 24.088C31.9395 24.0928 31.8982 24.0795 31.8918 24.088C31.8824 24.0997 31.8965 24.1315 31.8918 24.1456C31.8911 24.147 31.8139 24.2246 31.8114 24.226C31.7616 24.2523 31.7318 24.2294 31.6732 24.2605C31.6556 24.2698 31.629 24.3108 31.6156 24.318C31.5627 24.3457 31.5209 24.3287 31.4893 24.3755C31.4597 24.4178 31.4631 24.4631 31.4318 24.5018C31.4141 24.5227 31.3656 24.536 31.3511 24.5593C31.3444 24.5696 31.348 24.5988 31.3398 24.6053C31.2491 24.6716 31.2531 24.561 31.2132 24.7086C31.2042 24.7077 31.1598 24.7009 31.1551 24.6981C31.1415 24.7172 31.1042 24.7599 31.0866 24.7774C31.0181 24.8458 30.953 24.8831 30.9026 24.9728C30.9495 24.9495 30.9772 24.9434 31.0177 24.9154L30.9831 24.9614L30.9716 24.9728C30.9666 24.9754 30.9568 25.0235 30.9488 25.0303C30.9067 25.0628 30.8382 25.0537 30.7992 25.0878C30.7958 25.0902 30.7992 25.1168 30.7992 25.1223C30.7358 25.1546 30.686 25.2232 30.6267 25.2486C30.5579 25.2773 30.6575 25.1853 30.6956 25.1683L30.707 25.1223C30.6696 25.146 30.5387 25.1768 30.5232 25.2027C30.4969 25.2458 30.5305 25.2586 30.5116 25.2946C30.505 25.307 30.4825 25.3135 30.4716 25.3161C30.4709 25.3172 30.4692 25.3177 30.4657 25.3175C30.4655 25.3175 30.4678 25.317 30.4716 25.3161C30.4755 25.3109 30.4371 25.2927 30.4082 25.3062C30.3951 25.3119 30.3938 25.3459 30.385 25.352C30.3222 25.3938 30.2822 25.4059 30.1896 25.444C30.1896 25.452 30.1942 25.4975 30.1896 25.5015C30.182 25.4957 30.164 25.4749 30.1551 25.4786C30.1604 25.4599 30.1591 25.4427 30.1666 25.4209ZM46.2391 27.7218C46.2126 27.7229 46.1876 27.7251 46.1655 27.7304C46.1588 27.732 46.1494 27.7624 46.1424 27.765C46.1058 27.778 45.9645 27.7978 45.947 27.7995C45.8586 27.8069 45.78 27.765 45.6709 27.765C45.6786 27.8161 45.6722 27.8393 45.7052 27.8914C45.6877 27.8864 45.6526 27.8982 45.6361 27.8914C45.6148 27.882 45.6102 27.805 45.5326 27.857C45.5236 27.8626 45.5207 27.8998 45.5099 27.903C45.4849 27.9095 45.508 27.8991 45.4983 27.8914L45.2453 27.857L45.2222 27.8339C45.1993 27.8357 45.1965 27.842 45.1878 27.8455C45.144 27.8612 45.1783 27.8667 45.1533 27.8914H45.1303C45.1215 27.8864 45.1303 27.8455 45.1303 27.8455C45.0896 27.8357 45.0632 27.8845 45.0383 27.8914C44.998 27.9015 44.9563 27.8742 44.8885 27.88C44.7983 27.8871 44.6752 27.9236 44.6013 27.9604C44.5823 27.9453 44.5654 27.932 44.5436 27.9145C44.5388 27.9187 44.4629 28.0179 44.4629 28.0179C44.4427 28.0266 44.4139 28.0009 44.4402 28.0063C44.4391 27.9984 44.4584 27.9373 44.4402 27.9373C44.416 27.9369 44.416 27.968 44.4055 27.9832C44.363 27.9604 44.317 27.9395 44.2676 27.9832C44.2613 27.9889 44.2648 28.0149 44.256 28.0179C44.2059 28.0329 44.2623 27.9553 44.1984 27.9719C44.1662 27.9803 44.1332 28.0275 44.1065 28.0409C44.0613 28.0628 44.0202 28.0624 43.9687 28.0754C43.9694 28.0727 43.9898 28.0444 43.9799 28.0409C43.9708 28.0371 43.9543 28.0463 43.9456 28.0409C43.9241 28.0677 43.9206 28.0882 43.8996 28.1213C43.875 28.1158 43.8434 28.1213 43.8189 28.1213C43.8203 28.0985 43.8189 28.0745 43.8189 28.0523C43.8575 28.0537 43.794 28.0333 43.7845 28.0293C43.7578 28.0847 43.7638 28.0749 43.7729 28.1327C43.7652 28.1327 43.7442 28.136 43.7386 28.1327C43.7386 28.1327 43.6729 28.1418 43.635 28.1442C43.6757 28.121 43.6481 28.1276 43.6579 28.0983L43.6926 28.0754C43.6902 28.0749 43.6533 28.0544 43.6467 28.0523C43.6311 28.0979 43.6105 28.1751 43.52 28.1672C43.4161 28.1579 43.5263 28.0771 43.3822 28.1442V28.2131C43.3797 28.2139 43.2211 28.1901 43.2211 28.1901C43.2089 28.1798 43.2145 28.1567 43.1979 28.1442C43.1762 28.1586 43.1439 28.2172 43.1176 28.2247C43.0324 28.2479 42.9811 28.2042 42.9103 28.2247C42.9064 28.2254 42.9201 28.2439 42.9218 28.2476C42.8896 28.2581 42.8623 28.2805 42.8184 28.2706C42.8015 28.2667 42.8184 28.2247 42.8184 28.2247C42.8008 28.2175 42.7061 28.2124 42.7033 28.2131V28.2247C42.7033 28.2247 42.6374 28.2548 42.5998 28.259L42.5882 28.3167C42.5542 28.3338 42.4938 28.2825 42.4503 28.2822C42.4339 28.2818 42.4159 28.3167 42.4159 28.3167C42.2641 28.3597 42.1524 28.3441 42.0017 28.3624C41.9676 28.3665 41.8666 28.4149 41.8294 28.4198C41.7588 28.4287 41.6719 28.4347 41.6336 28.4198C41.6074 28.4095 41.6193 28.3694 41.5533 28.374C41.5034 28.3771 41.4614 28.4339 41.4267 28.4431C41.3741 28.4563 41.2867 28.4632 41.2541 28.466C41.1835 28.4718 41.1467 28.4473 41.1046 28.4198C41.0997 28.4247 41.093 28.4773 41.093 28.4773C41.0628 28.4831 41.0278 28.4357 40.9779 28.4431C40.9772 28.4431 40.9485 28.476 40.9436 28.4773C40.8891 28.4917 40.7952 28.5002 40.7482 28.5005C40.6429 28.5005 40.5443 28.4773 40.4377 28.4889C40.3146 28.5016 40.2564 28.5506 40.1384 28.5578C40.1079 28.5594 39.9985 28.53 39.9431 28.5349C39.9027 28.538 39.8631 28.5978 39.828 28.6037C39.7466 28.6172 39.7635 28.5574 39.6901 28.5693C39.6772 28.5711 39.6817 28.6009 39.6786 28.6152C39.5883 28.607 39.4158 28.6614 39.3678 28.581C39.3593 28.5858 39.3558 28.6207 39.3678 28.6269C39.2723 28.6269 39.2044 28.6537 39.1264 28.6498C39.072 28.6466 39.0098 28.6466 38.9309 28.6269C38.9122 28.6221 38.8928 28.5822 38.8847 28.581C38.8101 28.5646 38.721 28.6149 38.6433 28.6152H38.5282C38.5282 28.6152 38.51 28.5628 38.4938 28.5578C38.4562 28.5457 38.4103 28.5813 38.3788 28.581C38.3598 28.5805 38.3414 28.5478 38.3328 28.5464C38.212 28.5233 38.256 28.611 38.1718 28.6037C38.1718 28.6037 38.0385 28.5471 38.1026 28.5578C38.1015 28.555 38.0802 28.5276 38.0912 28.5233C38.0437 28.5303 38.0241 28.5276 37.9762 28.5349C37.9765 28.5373 37.9878 28.5923 37.9878 28.5923C37.96 28.5965 37.8957 28.5464 37.8957 28.5464C37.8271 28.5334 37.8847 28.5725 37.8265 28.5693C37.7544 28.5646 37.6911 28.4975 37.6427 28.466C37.621 28.4803 37.6132 28.4854 37.5852 28.5005C37.569 28.4584 37.5442 28.4211 37.5276 28.3855C37.4562 28.4023 37.4014 28.3726 37.3206 28.3624C37.317 28.3481 37.322 28.3194 37.3091 28.3167C37.2577 28.3048 37.2694 28.3484 37.2172 28.328C37.2035 28.3226 37.1714 28.2627 37.1597 28.259C37.1389 28.2527 37.1127 28.2764 37.079 28.2706C37.0442 28.2644 37.06 28.2261 37.0561 28.2247C37.0402 28.2182 37.0133 28.2326 36.9986 28.2247C36.9935 28.2219 36.9976 28.1829 36.9871 28.1787C36.9776 28.1747 36.9336 28.2072 36.8952 28.1557C36.8867 28.145 36.8891 28.1381 36.8835 28.1213C36.8835 28.1213 36.8734 28.0936 36.8606 28.0754C36.8692 28.0911 36.8811 28.0467 36.8606 28.0293C36.8232 27.9974 36.8 28.0193 36.7568 28.0179C36.7671 28.0095 36.7471 27.9885 36.7455 27.9832C36.7562 27.979 36.7682 27.9832 36.78 27.9832C36.7617 27.9013 36.7362 27.9086 36.7226 27.88C36.6822 27.7962 36.6711 27.6731 36.6649 27.5928C36.642 27.5912 36.619 27.5841 36.5959 27.5812C36.6113 27.5237 36.6162 27.5091 36.6534 27.4778C36.6366 27.4251 36.558 27.3198 36.573 27.2594C36.5804 27.2287 36.6092 27.2318 36.6307 27.2136C36.5935 27.1349 36.5959 27.115 36.6534 27.0755C36.6496 27.0634 36.6265 27.0218 36.6307 27.0068C36.6321 26.9998 36.6847 26.9603 36.688 26.9493C36.698 26.9111 36.6711 26.9033 36.6766 26.8689C36.6791 26.8505 36.7133 26.794 36.7226 26.7653C36.712 26.756 36.642 26.6619 36.642 26.6619C36.6222 26.6537 36.58 26.6721 36.5615 26.6619C36.559 26.6605 36.5629 26.6318 36.5615 26.6276C36.543 26.5793 36.4847 26.5898 36.435 26.5931C36.4261 26.5776 36.4163 26.5298 36.4004 26.5243C36.3697 26.513 36.3882 26.6253 36.3889 26.6276C36.2984 26.6407 36.2549 26.6493 36.2049 26.6964C36.1141 26.7811 36.1065 26.9935 36.0665 27.1138L35.9633 27.2365C35.9551 27.2413 35.9282 27.2516 35.9174 27.2594C35.9272 27.3266 35.9321 27.367 35.8828 27.3972C35.7797 27.4601 35.7923 27.3671 35.7794 27.3629C35.7643 27.358 35.7469 27.3694 35.7334 27.3629C35.7334 27.3629 35.715 27.4002 35.7104 27.4088C35.7294 27.4214 35.7345 27.4135 35.7564 27.4203C35.7535 27.4275 35.7448 27.4547 35.7448 27.4547C35.7341 27.4473 35.7104 27.4601 35.6988 27.4547C35.6939 27.4523 35.6902 27.4185 35.6873 27.4088C35.6803 27.4112 35.628 27.4294 35.6413 27.4319C35.6188 27.4529 35.5845 27.5101 35.561 27.5237C35.536 27.5374 35.543 27.5066 35.5148 27.5122C35.461 27.5231 35.4238 27.6383 35.4114 27.6962C35.3926 27.6899 35.3602 27.7035 35.3424 27.6962C35.3398 27.6951 35.3424 27.6652 35.3424 27.6617C35.3424 27.6617 35.3391 27.6012 35.2617 27.6156C35.2524 27.617 35.2136 27.6576 35.2042 27.6617C35.174 27.6727 35.127 27.6572 35.0893 27.6731C35.0568 27.686 35.0173 27.764 34.9857 27.788C34.9338 27.6864 34.907 27.7326 34.8478 27.788C34.7215 27.6872 34.5008 27.828 34.3646 27.7304C34.327 27.7035 34.3303 27.5812 34.3303 27.5812C34.3287 27.5736 34.3349 27.5339 34.3187 27.5466C34.3686 27.5052 34.3615 27.4645 34.3991 27.4088C34.4114 27.3899 34.4566 27.3806 34.4682 27.3629C34.4864 27.3338 34.4729 27.2982 34.4911 27.271C34.4977 27.2608 34.5325 27.2591 34.5372 27.2479C34.5447 27.2287 34.5313 27.1993 34.5372 27.179C34.5462 27.1797 34.5764 27.1937 34.5948 27.202C34.6457 27.1295 34.6994 27.1175 34.7673 27.0641C34.8092 27.0304 34.8412 26.9725 34.8821 26.9377C34.9449 26.8834 35.019 26.857 35.0893 26.8112C35.1259 26.7872 35.1554 26.7302 35.1928 26.7079C35.2051 26.7005 35.2245 26.7125 35.2389 26.7079C35.2863 26.6914 35.3347 26.626 35.3768 26.6045C35.4914 26.5445 35.5961 26.5333 35.7334 26.4895C35.8071 26.4657 35.9537 26.3912 36.0441 26.3747C36.1504 26.3549 36.2696 26.3665 36.343 26.3517C36.3728 26.3456 36.3987 26.3094 36.4464 26.3172C36.4629 26.3199 36.4717 26.3608 36.481 26.3632C36.4988 26.3672 36.5385 26.3388 36.5615 26.3402C36.6054 26.3428 36.6625 26.4001 36.6994 26.4092C36.7229 26.4146 36.7555 26.3957 36.7914 26.4092V26.4206C36.8218 26.4369 36.8492 26.451 36.8835 26.4667C36.8835 26.4699 36.8811 26.5003 36.8835 26.501C36.9453 26.5205 36.9802 26.4744 37.079 26.5127C37.0709 26.5075 37.0414 26.4702 37.033 26.4667C37.0208 26.4846 37.0215 26.4436 37.0215 26.4436C37.0316 26.4343 37.0758 26.4092 37.079 26.3977C37.0891 26.3563 37.0593 26.244 37.0446 26.1908C37.0252 26.1222 36.9179 26.0415 36.9179 26.0415C36.9179 26.0339 36.9225 25.9995 36.9179 25.9955C36.9085 25.9866 36.8727 26.0009 36.8606 25.9955C36.8432 25.988 36.8606 25.9592 36.8492 25.9496C36.826 25.9301 36.6833 25.8404 36.6649 25.8347C36.5751 25.8059 36.5145 25.8411 36.4121 25.8347C36.3735 25.8322 36.3206 25.7894 36.2738 25.7887C36.2538 25.7884 36.2093 25.8213 36.1934 25.8233C36.0856 25.8347 35.9829 25.8236 35.8599 25.8576C35.8409 25.8627 35.8139 25.8997 35.8024 25.9035C35.7481 25.9202 35.702 25.8961 35.6529 25.9151C35.6287 25.9242 35.6104 25.9791 35.6413 25.9842C35.5436 26.016 35.5024 26.0553 35.3999 26.0875C35.3953 26.0711 35.4034 26.0465 35.3884 26.0415H35.3652C35.3517 26.0756 35.2996 26.1837 35.2617 26.1908C35.25 26.193 35.1218 26.1424 35.1007 26.1334C35.1161 26.1629 35.1198 26.1769 35.1354 26.2023C35.0403 26.2333 34.9259 26.2505 34.8593 26.2139C34.8485 26.309 34.8711 26.3489 34.8478 26.4436C34.7532 26.426 34.6199 26.5496 34.5948 26.3863C34.5836 26.4459 34.5741 26.4579 34.5028 26.4781C34.4958 26.5732 34.4941 26.7169 34.3991 26.754C34.3884 26.758 34.3618 26.7464 34.3531 26.754C34.2959 26.8028 34.3665 26.8152 34.2727 26.7998C34.2687 26.8107 34.2694 26.8327 34.2612 26.8344C34.2612 26.8344 34.2914 26.857 34.2842 26.8573C34.2229 26.859 34.2437 26.8098 34.2152 26.7884C34.2016 26.794 34.1728 26.7884 34.1577 26.7884L34.1461 26.8457C34.1118 26.8605 33.8978 26.8375 33.87 26.8344C33.7956 26.8254 33.6418 26.8393 33.5596 26.8689C33.5527 26.8707 33.5431 26.9015 33.5365 26.9033C33.5052 26.9115 33.4923 26.8884 33.4445 26.9033V26.9148C33.4105 26.9323 33.3062 26.9419 33.2835 26.9721C33.2752 26.9827 33.281 27.011 33.2718 27.0182C33.2417 27.0411 33.2016 27.0329 33.1684 27.0527C33.1673 27.0531 33.157 27.0872 33.157 27.0872C33.0789 27.1327 32.9456 27.1486 32.881 27.202C32.8651 27.215 32.8562 27.2533 32.8464 27.271C32.7204 27.2386 32.762 27.2889 32.6853 27.317C32.6369 27.3341 32.5826 27.3191 32.5244 27.3512C32.5187 27.3544 32.5074 27.384 32.5015 27.3858C32.4233 27.4056 32.3899 27.3891 32.3059 27.4203L32.3173 27.5122L32.2829 27.5007C32.2829 27.5007 32.2724 27.4369 32.2713 27.4319C32.2713 27.4319 32.2374 27.443 32.237 27.4433C32.2281 27.5273 32.2524 27.5309 32.1678 27.5122C32.1699 27.5195 32.1839 27.5563 32.1794 27.5583C32.1223 27.5751 32.0421 27.5334 32.0185 27.5353C31.9986 27.5364 31.9966 27.5651 31.9839 27.5696C31.9518 27.5801 31.9139 27.5617 31.8803 27.5696C31.8677 27.572 31.8195 27.6138 31.7999 27.6156C31.7735 27.6178 31.7564 27.5967 31.7192 27.6042C31.629 27.6217 31.5179 27.7123 31.4203 27.7304C31.367 27.7404 31.3102 27.7158 31.2361 27.7304C31.1684 27.7435 31.0642 27.8102 31.0062 27.8109C30.9716 27.8114 30.9656 27.7827 30.9255 27.788C30.9235 27.788 30.8972 27.8206 30.8912 27.8225C30.8534 27.8325 30.6699 27.8273 30.6381 27.8225C30.632 27.8215 30.5983 27.7883 30.5922 27.788C30.5257 27.7811 30.4863 27.8236 30.4195 27.8225C30.4092 27.822 30.3619 27.7899 30.3506 27.788C30.2611 27.7725 30.2324 27.7899 30.132 27.765C30.132 27.7615 30.1341 27.7308 30.132 27.7304C30.0987 27.7201 30.0508 27.737 30.017 27.7304C29.9402 27.7154 29.875 27.6364 29.8216 27.5928C29.8075 27.5812 29.7723 27.5747 29.764 27.5583C29.7471 27.5252 29.769 27.4892 29.7525 27.4547C29.7405 27.4304 29.6781 27.3838 29.6605 27.3399C29.6799 27.3258 29.6605 27.2825 29.6605 27.2825C29.6696 27.2825 29.6721 27.1676 29.6721 27.1676C29.7198 27.0681 29.6784 27.0096 29.764 26.9721C29.7503 26.9138 29.7468 26.9115 29.764 26.8457C29.7482 26.8495 29.7454 26.8621 29.7181 26.8573C29.7291 26.8201 29.8086 26.6465 29.8329 26.6276C29.8486 26.615 29.8851 26.6287 29.9019 26.6161L29.9135 26.5585C30.0225 26.5216 30.0132 26.4648 30.0976 26.3977C30.1191 26.3802 30.144 26.3926 30.1666 26.3747C30.1886 26.3566 30.1872 26.3094 30.2125 26.2943C30.2506 26.2709 30.2931 26.281 30.3275 26.2599C30.3685 26.234 30.3636 26.1884 30.3965 26.1564C30.4329 26.1204 30.5026 26.1169 30.5576 26.0989C30.5576 26.0742 30.5524 26.0426 30.5576 26.0185C30.6021 26.0051 30.6603 26.0046 30.6727 25.9955C30.6765 25.9924 30.6727 25.9561 30.6727 25.9496C30.7435 25.9106 30.7821 25.8803 30.8567 25.8462C30.8537 25.8383 30.8453 25.8116 30.8453 25.8116C30.88 25.7658 30.958 25.7747 30.9026 25.7312C30.8885 25.7198 30.8912 25.6967 30.8912 25.6967C30.9474 25.6799 30.981 25.6731 31.0291 25.6508C31.0277 25.6483 31.0151 25.6286 31.0177 25.6278C31.0653 25.6116 31.1133 25.6368 31.1673 25.5934C31.1982 25.5679 31.2122 25.5118 31.2477 25.4899C31.2592 25.4824 31.2859 25.4882 31.2936 25.4786C31.3102 25.457 31.2956 25.4246 31.3167 25.4095C31.3743 25.3677 31.4428 25.3672 31.5008 25.3291C31.5396 25.3028 31.5704 25.2644 31.6156 25.2373C31.6128 25.2292 31.6043 25.2027 31.6043 25.2027C31.6341 25.174 31.6701 25.1915 31.7077 25.1683C31.7211 25.1597 31.6963 25.1453 31.6963 25.1453C31.7365 25.1172 31.743 25.1103 31.7653 25.0648C31.7944 25.0648 31.7954 25.0836 31.8226 25.0648C31.8226 25.0645 31.7879 25.0221 31.8342 25.0074C31.9746 24.9621 31.8074 25.1291 31.7767 25.1568C31.8742 25.1107 31.8918 25.0731 32.0068 25.0648C32.0503 24.9645 32.0641 24.9215 32.1335 24.8694C32.1296 24.8623 32.1168 24.8537 32.1219 24.8465C32.1247 24.8416 32.165 24.8283 32.1678 24.8235C32.2078 24.7472 32.178 24.7427 32.2597 24.7086C32.2597 24.7086 32.2182 24.6907 32.2254 24.6856C32.2387 24.6755 32.2678 24.6935 32.2829 24.6856C32.2864 24.6836 32.2929 24.6336 32.2945 24.6282C32.3394 24.6212 32.3562 24.634 32.3864 24.6053C32.3987 24.593 32.3882 24.5617 32.398 24.5479C32.4072 24.5336 32.4464 24.529 32.4554 24.5132C32.4874 24.4544 32.4615 24.4199 32.5015 24.3869C32.5292 24.3632 32.5674 24.3765 32.5934 24.3523C32.5989 24.347 32.5903 24.3255 32.5934 24.318C32.6029 24.2928 32.7348 24.1955 32.766 24.1571C32.8004 24.1632 32.8073 24.1657 32.8464 24.1687C32.8516 24.1493 32.8379 24.1191 32.8464 24.0997L32.8579 24.088C32.9306 24.0627 32.9182 24.001 32.9498 23.9846C32.9835 23.9668 33.0391 23.9854 33.0535 23.9846C33.0779 23.9187 33.0969 23.9072 33.157 23.8813C33.1056 23.8414 33.2122 23.7309 33.2375 23.6861C33.2638 23.705 33.2624 23.704 33.295 23.7204L33.3179 23.6745C33.3361 23.5984 33.3146 23.608 33.3869 23.5825C33.3756 23.4911 33.4283 23.4569 33.5365 23.4332C33.5403 23.4092 33.5269 23.3747 33.5365 23.3528C33.542 23.3402 33.5831 23.3395 33.5941 23.3298C33.6209 23.3052 33.6747 23.169 33.6747 23.169L33.663 23.146C33.6887 23.1322 33.7019 23.1276 33.7082 23.1267C33.7093 23.1202 33.7146 23.1059 33.7322 23.077C33.7322 23.077 33.7554 23.0603 33.7666 23.0528V23.0426C33.7823 23.0296 33.8446 23.0125 33.8473 23.0081C33.8727 22.9571 33.8398 22.9281 33.8356 22.9045C33.8409 22.8999 33.8641 22.9078 33.87 22.9045C33.873 22.9028 33.8676 22.8749 33.87 22.8702C33.8909 22.8267 33.9628 22.798 33.9967 22.7898C33.9895 22.7686 34.0026 22.7696 34.0082 22.7552C33.9987 22.7473 33.9621 22.7093 33.9621 22.7093C34.0005 22.7193 34.1012 22.4953 34.1232 22.4221C34.1008 22.4099 34.098 22.4235 34.0886 22.3992C34.1523 22.4034 34.2388 22.4062 34.2152 22.3072L34.2037 22.2842C34.227 22.2607 34.3022 22.2285 34.3187 22.2037C34.3737 22.1209 34.3349 21.9303 34.3303 21.8475C34.3258 21.7746 34.3651 21.6264 34.3531 21.5832C34.3478 21.565 34.2986 21.5367 34.2956 21.5258C34.2795 21.4687 34.3331 21.4367 34.2842 21.411C34.2654 21.4009 34.2245 21.3902 34.2152 21.3881C34.2051 21.3004 34.2044 21.2823 34.1345 21.2731C34.1533 21.2252 34.1512 21.2156 34.1691 21.1811C34.0833 21.1488 34.1156 21.1154 34.077 21.0893C34.0569 21.075 34.0577 21.1024 34.0426 21.1007C34.0248 21.0986 33.9916 21.0586 33.9735 21.0548C33.8915 21.0363 33.7841 21.0321 33.6976 21.0432C33.5933 21.0561 33.4455 21.1212 33.3295 21.1697C33.2978 21.1825 33.2341 21.2437 33.2031 21.25C33.1663 21.257 33.1537 21.2268 33.1109 21.2386C33.0491 21.2554 32.9374 21.4841 32.8695 21.5258C32.8439 21.5412 32.8225 21.5219 32.812 21.5258C32.7681 21.5412 32.7737 21.6023 32.7428 21.6294C32.7141 21.6537 32.6717 21.6414 32.6394 21.6637C32.6193 21.6769 32.6109 21.7158 32.5934 21.7327C32.5671 21.7565 32.5295 21.7543 32.5015 21.7787C32.4629 21.8114 32.4587 21.8834 32.4208 21.9165C32.3857 21.9464 32.3415 21.9464 32.3059 21.974C32.2384 22.0257 32.1864 22.1132 32.1219 22.1692C32.1086 22.1805 32.0726 22.1901 32.0644 22.2037C32.0575 22.2144 32.0612 22.2593 32.0412 22.2842C32.0195 22.3108 31.9367 22.3455 31.9263 22.376C31.9205 22.3911 31.9346 22.4209 31.9263 22.4335C31.9112 22.4551 31.8904 22.4286 31.8689 22.445C31.863 22.4489 31.862 22.4946 31.8574 22.5025C31.83 22.546 31.7444 22.5688 31.7077 22.6059C31.6813 22.6322 31.6974 22.6648 31.6732 22.6978C31.6549 22.7223 31.629 22.7015 31.6043 22.7209C31.5988 22.7247 31.6069 22.748 31.6043 22.7552C31.5909 22.7894 31.4978 22.8134 31.4778 22.8473C31.4603 22.876 31.4771 22.8898 31.4662 22.9045C31.4529 22.9223 31.4476 22.9125 31.4203 22.9161C31.3943 22.9938 31.3066 23.0536 31.3859 23.0999C31.3125 23.1097 31.2873 23.133 31.2132 23.1344C31.1909 23.1807 31.1968 23.2221 31.1673 23.261C31.1438 23.2907 31.1182 23.2709 31.0866 23.2952C31.0546 23.3199 31.063 23.362 31.0407 23.3987C30.9989 23.4659 30.9084 23.526 30.8681 23.594C30.8607 23.6064 30.8358 23.7299 30.8336 23.732C30.8272 23.7377 30.786 23.732 30.7762 23.732C30.7488 23.7954 30.7553 23.8138 30.6843 23.8238C30.6799 23.8447 30.6899 23.8512 30.6956 23.8697C30.647 23.9061 30.6302 23.9367 30.5922 23.9846C30.5747 24.0059 30.5099 24.0307 30.5001 24.0537C30.4828 24.0928 30.5095 24.1327 30.5232 24.1915C30.4938 24.2023 30.4727 24.2044 30.4425 24.2146C30.4425 24.2181 30.4447 24.2479 30.4425 24.2491C30.4195 24.2581 30.3743 24.2174 30.3506 24.2834C30.3308 24.3374 30.3555 24.3797 30.3622 24.4214C30.2554 24.4526 30.2239 24.4353 30.2012 24.5593C30.1907 24.5596 30.1461 24.5708 30.132 24.5708C30.131 24.5771 30.132 24.6626 30.132 24.6626C30.132 24.6626 30.0777 24.7151 30.0745 24.7201C30.0745 24.7201 30.0338 24.7834 30.0861 24.7661C30.0836 24.7761 30.0679 24.8314 30.0745 24.8351C29.9416 24.769 29.8453 25.0638 29.7756 25.1798C29.7704 25.1871 29.7335 25.1908 29.7295 25.2027C29.724 25.2168 29.7366 25.2483 29.7295 25.2602C29.7171 25.2791 29.6886 25.2681 29.6721 25.2831C29.6568 25.2962 29.6096 25.3841 29.603 25.3981C29.5681 25.4656 29.5832 25.517 29.626 25.559C29.5544 25.5389 29.5293 25.544 29.4879 25.6163C29.4262 25.724 29.3967 25.8307 29.3385 25.9496C29.3165 25.9938 29.2622 26.0362 29.2464 26.0875C29.2313 26.1356 29.2515 26.1753 29.2351 26.2253C29.2258 26.2512 29.1353 26.3159 29.1315 26.3172C29.1799 26.2976 29.1982 26.2953 29.2351 26.2713C29.2435 26.2652 29.2617 26.2403 29.2693 26.2368C29.3294 26.2088 29.2773 26.2599 29.3039 26.2713C29.2582 26.2896 29.1731 26.3162 29.2578 26.3402C29.1985 26.3812 29.1522 26.4189 29.0853 26.4552C29.0853 26.4623 29.0897 26.4968 29.0853 26.501C29.0786 26.5068 29.0375 26.501 29.028 26.501C29.0147 26.5309 29.02 26.5367 29.0048 26.5585C28.9947 26.555 28.9733 26.5453 28.9705 26.547C28.9849 26.5592 28.9531 26.5896 28.9933 26.5815C28.9901 26.5855 28.9693 26.6153 28.9705 26.6161C28.9421 26.6115 28.9381 26.6057 28.9129 26.5931C28.9014 26.6188 28.9028 26.6027 28.8783 26.6161C28.8783 26.6256 28.8846 26.6789 28.8783 26.6851C28.8684 26.694 28.8554 26.6735 28.8554 26.6735C28.8186 26.6735 28.6811 26.7811 28.6484 26.7998C28.6318 26.8087 28.6053 26.7991 28.5909 26.8112C28.5836 26.8172 28.5888 26.8512 28.5794 26.8573C28.5427 26.8806 28.5067 26.8673 28.4758 26.8918C28.4586 26.9052 28.4159 26.9737 28.4183 26.9721V26.9953C28.4341 26.9991 28.4874 27.0182 28.4874 27.0182C28.4316 27.0435 28.1857 27.126 28.1654 27.1561C28.1629 27.1589 28.1524 27.2258 28.1423 27.2479C27.9549 27.2526 28.0513 27.3054 27.9468 27.3512C27.8875 27.3769 27.8735 27.3655 27.8317 27.3972C27.8525 27.434 27.8462 27.4426 27.8661 27.4778C27.6753 27.5059 27.6937 27.611 27.5672 27.6271C27.582 27.672 27.5755 27.6748 27.5902 27.7189C27.5635 27.7301 27.5434 27.7178 27.5212 27.7304C27.5118 27.7353 27.4939 27.7855 27.4865 27.788C27.4744 27.7917 27.3455 27.7624 27.4062 27.8109C27.4178 27.8203 27.4178 27.8109 27.4178 27.8109C27.4693 27.8287 27.5191 27.828 27.4522 27.8684C27.3942 27.903 27.3171 27.9005 27.2567 27.9259C27.3939 28.0056 27.1962 27.9832 27.1877 27.9832H27.176C27.1403 27.9967 27.1171 28.0765 27.0841 28.0983C27.0817 28.0997 26.9213 28.1761 26.9115 28.1787C26.8842 28.185 26.8451 28.1682 26.8196 28.1787C26.7985 28.1866 26.8361 28.2267 26.7965 28.2476C26.8138 28.2455 26.8368 28.2308 26.854 28.2247C26.8035 28.3238 26.8397 28.3448 26.693 28.3969C26.7232 28.3969 26.693 28.2822 26.693 28.2822C26.6796 28.2721 26.6877 28.2653 26.6814 28.2476C26.6592 28.2562 26.6045 28.2922 26.5895 28.2935C26.5165 28.2986 26.5723 28.2196 26.463 28.3167C26.3876 28.3831 26.3143 28.4903 26.2331 28.5464C26.2387 28.5656 26.2492 28.5725 26.2445 28.5923C26.1838 28.6028 26.1896 28.5941 26.2099 28.6037C26.2324 28.6142 26.2092 28.6322 26.2331 28.6382C26.2331 28.6382 26.2137 28.6765 26.2106 28.6829C26.2172 28.6929 26.2331 28.7188 26.2331 28.7188C26.2362 28.7385 26.2186 28.7501 26.2099 28.7648C26.3081 28.7733 26.2906 28.806 26.2558 28.8796C26.2225 28.866 26.2567 28.9277 26.2674 28.9026C26.3369 28.9338 26.3243 28.9571 26.2906 29.029C26.3274 29.0612 26.3311 29.0483 26.3596 29.0749C26.3596 29.0749 26.3513 29.0945 26.3365 29.0864C26.3355 29.0886 26.325 29.1205 26.325 29.1209C26.3505 29.1303 26.3821 29.1406 26.394 29.144C26.394 29.144 26.3695 29.1687 26.3825 29.1782C26.4127 29.2013 26.4457 29.1889 26.4859 29.2013C26.4997 29.1713 26.5025 29.138 26.5091 29.1209C26.6233 29.1078 26.637 29.1216 26.647 29.029C26.6635 29.0297 26.6803 29.0401 26.6814 29.0404C26.6571 29.0311 26.6582 29.0854 26.7162 29.0749C26.7473 29.0692 26.8908 28.9628 26.9232 28.937C26.9225 28.9356 26.9076 28.9158 26.9115 28.9141C26.954 28.8944 26.9653 28.9154 26.992 28.8911C27.0102 28.8744 26.9869 28.8609 26.992 28.8566C26.9597 28.8634 26.9571 28.8685 26.9232 28.8681C26.9259 28.8587 26.9347 28.8336 26.9347 28.8336C26.9756 28.8398 26.9943 28.8527 27.0382 28.845C27.0848 28.8369 27.0894 28.7868 27.1185 28.7648C27.1922 28.7072 27.2894 28.6953 27.3603 28.6382C27.3669 28.6326 27.3648 28.5974 27.3716 28.5923C27.4003 28.57 27.4356 28.5794 27.4637 28.5578C27.5022 28.5276 27.5251 28.4703 27.5672 28.4431C27.6005 28.4206 27.6458 28.4325 27.6823 28.4085C27.7085 28.3904 27.7228 28.3242 27.7512 28.3051C27.7941 28.2761 27.8381 28.2789 27.8777 28.2476C27.9608 28.1812 27.965 28.1273 28.0619 28.0754C28.0619 28.0754 28.0596 28.0186 28.0619 28.0063C28.0955 28.0116 28.078 28.0271 28.1194 28.0293C28.1264 28.0293 28.0962 27.9838 28.0962 27.9832C28.162 27.9586 28.1771 27.9331 28.2228 27.903C28.2763 27.867 28.3442 27.8698 28.3951 27.8339L28.4529 27.788C28.4567 27.7794 28.446 27.7473 28.4529 27.7421C28.4733 27.7245 28.4978 27.7343 28.5218 27.7189C28.5843 27.6774 28.5707 27.6267 28.6713 27.6042C28.6678 27.6028 28.6713 27.5633 28.6713 27.5583C28.6361 27.5568 28.6039 27.5583 28.5677 27.5583C28.5702 27.55 28.5794 27.5237 28.5794 27.5237C28.6502 27.5139 28.6685 27.5241 28.7174 27.5353C28.7295 27.5021 28.7576 27.4584 28.8095 27.4433C28.8226 27.4389 28.8561 27.4505 28.867 27.4433C28.8729 27.4389 28.8483 27.4046 28.8439 27.3972C28.914 27.3687 28.9498 27.3477 29.028 27.317C29.0261 27.3183 29.028 27.3499 29.028 27.3512C29.0422 27.3373 29.0394 27.3629 29.0394 27.3629C29.0298 27.3697 28.9993 27.3984 28.9933 27.4088L28.9819 27.4547C29.0006 27.4502 29.0099 27.4405 29.028 27.4319C29.0231 27.4703 28.988 27.6558 29.0165 27.7421L29.0624 27.7535C29.0635 27.7798 29.074 27.8366 29.074 27.8455C29.0729 27.8677 29.0462 27.8893 29.0508 27.903C29.0572 27.9222 29.1119 27.9331 29.12 27.9604C29.1339 28.0095 29.1024 28.0731 29.12 28.1213C29.1357 28.1647 29.2182 28.1565 29.2578 28.1787C29.3032 28.2038 29.3245 28.2836 29.3729 28.3051C29.4031 28.3183 29.4038 28.2853 29.4304 28.2935C29.4304 28.2935 29.4416 28.3277 29.442 28.328C29.6551 28.328 29.8672 28.4144 30.0976 28.3855C30.1594 28.3775 30.2187 28.349 30.3046 28.3394C30.3046 28.3386 30.316 28.3051 30.316 28.3051C30.4138 28.2734 30.4458 28.2955 30.5576 28.2706C30.5906 28.263 30.6456 28.2089 30.6727 28.2016C30.6906 28.1967 30.7255 28.21 30.7416 28.2016C30.7532 28.1953 30.7819 28.1276 30.8453 28.1213C30.9753 28.1072 31.0838 28.1517 31.2017 28.1327C31.2232 28.1292 31.3045 28.0833 31.3284 28.0868C31.3336 28.0875 31.3764 28.1252 31.3859 28.1327C31.3976 28.0918 31.4077 28.0656 31.4203 28.0293C31.4767 28.0364 31.5276 28.0563 31.6043 28.0293C31.609 28.0275 31.6223 27.9955 31.6273 27.995C31.6567 27.9881 31.7067 28.0176 31.7653 27.995C31.7911 27.9845 31.816 27.9359 31.8458 27.9259C31.8749 27.9156 31.9489 27.9359 32.0068 27.9145C32.0191 27.9098 32.037 27.8626 32.0527 27.857C32.0884 27.8433 32.2363 27.8824 32.2829 27.8684C32.2969 27.864 32.324 27.7937 32.3404 27.788C32.3825 27.7729 32.4912 27.7866 32.5358 27.7766C32.5567 27.7715 32.6214 27.7083 32.6394 27.7075C32.6509 27.7068 32.7042 27.7315 32.7314 27.7421C32.74 27.7287 32.7552 27.6774 32.766 27.6731C32.799 27.6594 32.8464 27.6807 32.881 27.6731C32.9004 27.6685 32.9306 27.6325 32.9498 27.6271C32.9816 27.6178 32.9949 27.6434 33.019 27.6386C33.0193 27.6383 33.019 27.607 33.019 27.6042C33.0656 27.5909 33.1301 27.5935 33.1916 27.5812C33.1923 27.5808 33.2214 27.5481 33.2259 27.5466C33.2852 27.5252 33.304 27.5546 33.3642 27.5353C33.395 27.5252 33.4362 27.4498 33.4677 27.4433C33.528 27.43 33.5707 27.4617 33.6515 27.4433C33.7503 27.6236 33.6674 27.7687 33.7896 27.9145C33.8251 27.9567 33.8836 27.9499 33.9161 27.9719C33.9289 27.9805 33.923 27.9992 33.9275 28.0179C34.007 28.0375 34.0612 28.086 34.1232 28.0983L34.3876 28.1672C34.4315 28.177 34.4268 28.1134 34.4682 28.1097C34.4937 28.1072 34.4538 28.1374 34.4797 28.1442C34.5141 28.1532 34.5447 28.1381 34.5833 28.1327C34.5818 28.1364 34.5597 28.1603 34.5716 28.1672H34.5948L34.6868 28.1557L34.7097 28.0983C34.7881 28.095 34.9434 28.1147 35.0547 28.0983C35.076 28.095 35.1604 28.0551 35.1814 28.0523C35.228 28.0451 35.2905 28.0641 35.3192 28.0639C35.3541 28.0628 35.4404 28.0247 35.4803 28.0179C35.5131 28.0116 35.5108 28.0371 35.5378 28.0293C35.5395 28.0285 35.5378 27.9981 35.5378 27.995C35.7023 27.9731 35.6364 27.928 35.7564 27.857C35.7862 27.8965 35.816 27.9395 35.8828 27.9145C35.903 27.9065 35.9034 27.8817 35.9174 27.8684C35.8868 27.8637 35.8763 27.867 35.8599 27.8684C35.9297 27.8383 35.996 27.7705 36.1014 27.765C36.0561 27.7356 36.0662 27.7209 36.0784 27.6617C36.0886 27.6617 36.1161 27.6671 36.1244 27.6617C36.123 27.6958 36.1288 27.7308 36.1244 27.788C36.1212 27.788 36.09 27.7873 36.09 27.788C36.1449 27.8376 36.0451 27.8897 36.136 27.9373C36.1202 27.9638 36.1065 27.983 36.09 28.0179C36.1026 28.0238 36.1328 28.0179 36.1475 28.0179C36.1928 28.1011 36.1442 28.0456 36.2279 28.0868C36.2271 28.0875 36.2135 28.1086 36.2165 28.1097C36.2374 28.1161 36.1787 28.1076 36.1475 28.0983C36.1529 28.1079 36.1703 28.1442 36.1703 28.1442C36.2124 28.1474 36.2844 28.1389 36.297 28.1442L36.2769 28.204C36.2769 28.204 36.3725 28.3137 36.3659 28.3167C36.3454 28.3247 36.3222 28.3238 36.3085 28.328C36.3749 28.3417 36.3768 28.3603 36.3659 28.4198C36.3899 28.4065 36.4145 28.4041 36.435 28.3969C36.435 28.3959 36.4331 28.3637 36.435 28.3624C36.3524 28.2839 36.4598 28.3464 36.481 28.4315C36.4927 28.4345 36.5289 28.4345 36.5385 28.4431C36.5422 28.4462 36.5362 28.4725 36.5385 28.4773C36.5468 28.4992 36.6314 28.5485 36.6534 28.5578C36.6896 28.573 36.7352 28.5588 36.7685 28.581C36.7724 28.5834 36.7685 28.6203 36.7685 28.6269C36.8042 28.6375 36.819 28.6368 36.8606 28.6498C36.8593 28.6515 36.8463 28.6724 36.8492 28.6728C36.8915 28.6785 36.8763 28.634 36.9527 28.6498C36.9607 28.6512 36.9179 28.6728 36.9179 28.6728C37.0196 28.742 37.0264 28.7034 37.1365 28.6843C37.0586 28.7055 37.1232 28.7354 37.1711 28.7532C37.1985 28.7634 37.254 28.7679 37.2747 28.7877C37.2771 28.7901 37.2862 28.8336 37.2862 28.8336C37.3706 28.8669 37.4137 28.7945 37.4817 28.8221C37.4831 28.8226 37.4612 28.8527 37.4586 28.8566C37.4715 28.8678 37.4813 28.8791 37.4931 28.8911C37.5098 28.8781 37.5255 28.8552 37.5392 28.845L37.7378 28.9183L38.0337 28.937C38.0378 28.9249 38.0454 28.898 38.0567 28.8911C38.0743 28.9076 38.0676 28.9234 38.0799 28.9485C38.1917 28.955 38.2058 28.9648 38.3096 28.9716C38.3794 28.9759 38.4733 28.9517 38.5397 28.9716C38.5397 28.9716 38.5624 29.0171 38.563 29.0174C38.5717 29.0202 38.5825 28.9955 38.6549 29.0174C38.6576 29.0043 38.6549 28.973 38.6664 28.9716C38.6678 28.9712 38.7453 28.9927 38.7813 28.9945C38.7663 28.9901 38.8222 28.9816 38.8274 28.9831V29.0059C38.9078 28.9995 38.9474 28.9873 38.9999 28.9716C39.0165 29.011 39.0236 29.0265 39.0345 29.052C39.0783 29.042 39.1358 29.038 39.1838 29.0174C39.1838 29.0174 39.2081 28.974 39.2415 28.9716C39.2688 28.9691 39.3323 29.0146 39.3565 29.0174C39.4096 29.0232 39.5319 28.9862 39.6094 28.9945C39.6189 28.9952 39.6613 29.0213 39.6786 29.0174C39.6947 29.0136 39.6999 28.974 39.7245 28.9716C39.7367 28.9701 39.8381 29.0194 39.8512 29.0174C39.8585 29.016 39.8918 28.961 39.8971 28.96C39.9557 28.9452 39.9487 28.9982 40.0006 28.9831C40.0142 28.9787 39.989 28.937 39.989 28.937C40.0013 28.9324 40.0202 28.9359 40.0233 28.9256C40.0584 28.9377 40.0897 28.9774 40.15 28.9831C40.1992 28.9877 40.2483 28.9524 40.2766 28.9485C40.3026 28.9445 40.3739 28.9716 40.3802 28.9716C40.4134 28.9709 40.4798 28.9382 40.5065 28.937C40.5404 28.9353 40.5952 28.9614 40.6447 28.96C40.6949 28.9582 40.7983 28.9438 40.8517 28.937L40.8633 28.9026C40.8696 28.9008 40.9078 28.92 40.9201 28.9253C40.925 28.9253 40.9394 28.9253 40.9443 28.9254C41.0485 28.9097 41.1 28.888 41.2081 28.9026L41.2197 28.8566C41.2485 28.853 41.2712 28.9088 41.3116 28.9026C41.3231 28.9004 41.3004 28.8566 41.3004 28.8566C41.4028 28.8836 41.426 28.8685 41.4842 28.8107C41.4978 28.8182 41.5281 28.8027 41.5417 28.8107C41.5441 28.8121 41.5417 28.851 41.5417 28.8566C41.542 28.8566 41.5761 28.8681 41.5761 28.8681C41.5873 28.862 41.5923 28.8192 41.6221 28.8107L41.7719 28.8221C41.781 28.8226 41.802 28.8483 41.8294 28.845L41.8521 28.8107C41.8743 28.8045 41.9592 28.8107 42.0132 28.8107C42.0132 28.8041 42.0097 28.7546 42.0132 28.7532C42.0297 28.7457 42.0591 28.7648 42.0591 28.7648C42.0591 28.7648 42.0722 28.8027 42.1283 28.7992C42.2083 28.7935 42.2507 28.7518 42.3353 28.7648C42.3223 28.7464 42.3079 28.7248 42.3009 28.7072C42.3072 28.7036 42.3202 28.7114 42.3125 28.6957C42.3299 28.7022 42.3623 28.6957 42.3813 28.6957C42.3813 28.7034 42.3771 28.7508 42.3813 28.7532C42.3918 28.745 42.4159 28.7597 42.4272 28.7532C42.43 28.7515 42.4272 28.7127 42.4272 28.7072C42.4732 28.722 42.5258 28.7436 42.5539 28.7417C42.6205 28.7364 42.6223 28.68 42.6573 28.6728C42.731 28.657 42.651 28.7094 42.7608 28.6498C42.8552 28.7118 42.8499 28.6696 42.9334 28.6614C42.9864 28.656 43.0158 28.6896 43.0829 28.6843C43.1933 28.6751 43.2239 28.6364 43.3474 28.6269V28.5923C43.3948 28.5827 43.3853 28.6203 43.4164 28.6152L43.4281 28.581C43.5158 28.5737 43.5281 28.5805 43.5775 28.6037C43.581 28.5964 43.5937 28.5594 43.6004 28.5578C43.7122 28.5305 43.7975 28.5801 43.8536 28.5693V28.5464C43.8785 28.5471 43.9168 28.5453 43.9456 28.5464L43.9687 28.5005C44.0167 28.4903 44.0199 28.5334 44.0262 28.5349C44.0476 28.5396 44.1567 28.5296 44.1984 28.5233C44.3034 28.5077 44.509 28.4861 44.6013 28.4431C44.6128 28.4373 44.6282 28.3876 44.6355 28.3855C44.689 28.3691 44.743 28.4139 44.7738 28.4315C44.7632 28.3778 44.7496 28.3586 44.8425 28.3394C44.8429 28.3438 44.8556 28.4181 44.8541 28.4085C44.8774 28.4092 44.8951 28.435 44.9461 28.4198C44.9521 28.4181 44.9233 28.3969 44.9233 28.3969C44.9527 28.3913 44.9615 28.3913 44.9808 28.3855C44.9737 28.3719 44.9576 28.3394 44.9576 28.3394C45.0412 28.3116 45.0608 28.3822 45.0727 28.3855C45.0958 28.3915 45.1292 28.3855 45.1533 28.3855C45.1457 28.3805 45.1713 28.3763 45.1533 28.3624C45.0583 28.2897 45.2702 28.342 45.3372 28.3394C45.3133 28.3172 45.3217 28.3223 45.3141 28.2935C45.3323 28.2935 45.3554 28.299 45.3716 28.2935C45.3716 28.3032 45.3653 28.3565 45.3716 28.3624C45.3797 28.3589 45.3983 28.3624 45.4063 28.3624L45.3948 28.2822C45.3948 28.2822 45.4397 28.3172 45.4523 28.3394C45.4324 28.3445 45.4456 28.374 45.4754 28.3624C45.5236 28.3434 45.5039 28.3287 45.5674 28.3624C45.5997 28.3151 45.6168 28.2915 45.6361 28.259C45.6477 28.2808 45.7435 28.3524 45.8434 28.3167C45.8434 28.3167 45.9291 28.215 45.9353 28.2131C46.0326 28.1794 46.1277 28.2166 46.2115 28.1787C46.2279 28.2042 46.2322 28.2243 46.2458 28.2476L46.2391 27.7218Z" fill="white"/>
</g>
<defs>
<filter id="filter0_d" x="0" y="0" width="72" height="85.3333" filterUnits="userSpaceOnUse" color-interpolation-filters="sRGB">
<feFlood flood-opacity="0" result="BackgroundImageFix"/>
<feColorMatrix in="SourceAlpha" type="matrix" values="0 0 0 0 0 0 0 0 0 0 0 0 0 0 0 0 0 0 127 0"/>
<feOffset dy="4"/>
<feGaussianBlur stdDeviation="8"/>
<feColorMatrix type="matrix" values="0 0 0 0 0.203125 0 0 0 0 0.226562 0 0 0 0 0.25 0 0 0 0.16 0"/>
<feBlend mode="normal" in2="BackgroundImageFix" result="effect1_dropShadow"/>
<feBlend mode="normal" in="SourceGraphic" in2="effect1_dropShadow" result="shape"/>
</filter>
</defs>
</svg>